  0
SECTION
  2
HEADER
  9
$ANGBASE
  50
0.0
  9
$ANGDIR
  70
1
  9
$MEASUREMENT
  70
0
  0
ENDSEC
  0
SECTION
  2
TABLES
  0
TABLE
  2
LTYPE
  70
4
  0
LTYPE
  5
40F
  2
CONTINUOUS
  70
0
  3
Solid line
  72
65
  73
0
  40
0.0
  0
LTYPE
  5
410
  2
DASHDOT
 70
0
  3
Dash Dot ____ _ ____ _
 72
65
 73
4
 40
2.0
 49
1.25
 49
-0.25
 49
0.25
 49
-0.25
  0
LTYPE
  5
411
  2
DASHED
 70
0
  3
Dashed __ __ __ __ __
 72
65
 73
2
 40
0.75
 49
0.5
 49
-0.25
  0
LTYPE
  5
43B
  2
DOTTED
 70
0
  3
Dotted .  .  .  .
 72
65
 73
2
 40
0.2
 49
0.0
 49
-0.2
  0
ENDTAB
  0
TABLE
  2
STYLE
  70
4
  0
STYLE
  2
KICAD
  70
0
  40
0
  41
1
  42
1
  50
0
  71
0
  3
isocp.shx
  0
STYLE
  2
KICADB
  70
0
  40
0
  41
1
  42
1
  50
0
  71
0
  3
isocp.shx
  0
STYLE
  2
KICADI
  70
0
  40
0
  41
1
  42
1
  50
15
  71
0
  3
isocp.shx
  0
STYLE
  2
KICADBI
  70
0
  40
0
  41
1
  42
1
  50
15
  71
0
  3
isocp.shx
  0
ENDTAB
  0
TABLE
  2
LAYER
  70
1
  0
LAYER
  2
BLACK
  70
0
  62
7
  6
CONTINUOUS
  0
ENDTAB
  0
ENDSEC
  0
SECTION
  2
ENTITIES
0
LINE
8
BLACK
6
CONTINUOUS
10
6.6015577559055121
20
-2.1478308267716537
11
6.6018770866141727
21
-2.1480441732283464
0
LINE
8
BLACK
6
CONTINUOUS
10
6.6018770866141727
20
-2.1480441732283464
11
6.8118770866141727
21
-2.3580441732283464
0
LINE
8
BLACK
6
CONTINUOUS
10
6.8118770866141727
20
-2.3580441732283464
11
6.8120904330708658
21
-2.3583635039370079
0
LINE
8
BLACK
6
CONTINUOUS
10
6.8120904330708658
20
-2.3583635039370079
11
6.8121653543307081
21
-2.3587401574803151
0
LINE
8
BLACK
6
CONTINUOUS
10
6.8121653543307081
20
-2.3587401574803151
11
6.8121653543307081
21
-3.1449623622047245
0
LINE
8
BLACK
6
CONTINUOUS
10
6.8121653543307081
20
-3.1449623622047245
11
7.2903919291338584
21
-3.6231889763779526
0
LINE
8
BLACK
6
CONTINUOUS
10
7.2903919291338584
20
-3.6231889763779526
11
7.8151181102362202
21
-3.6231889763779526
0
LINE
8
BLACK
6
CONTINUOUS
10
7.8151181102362202
20
-3.6231889763779526
11
7.8154947637795278
21
-3.6232638976377953
0
LINE
8
BLACK
6
CONTINUOUS
10
7.8154947637795278
20
-3.6232638976377953
11
7.8160274409448816
21
-3.6237965748031495
0
LINE
8
BLACK
6
CONTINUOUS
10
7.8160274409448816
20
-3.6237965748031495
11
7.8161023622047239
21
-3.6241732283464567
0
LINE
8
BLACK
6
CONTINUOUS
10
7.8161023622047239
20
-3.6241732283464567
11
7.8161023622047239
21
-5.4972440944881891
0
LINE
8
BLACK
6
CONTINUOUS
10
7.8161023622047239
20
-5.4972440944881891
11
7.8160274409448816
21
-5.4976207480314958
0
LINE
8
BLACK
6
CONTINUOUS
10
7.8160274409448816
20
-5.4976207480314958
11
7.8154947637795278
21
-5.4981534251968505
0
LINE
8
BLACK
6
CONTINUOUS
10
7.8154947637795278
20
-5.4981534251968505
11
7.8151181102362202
21
-5.4982283464566928
0
LINE
8
BLACK
6
CONTINUOUS
10
7.8151181102362202
20
-5.4982283464566928
11
3.6594488188976375
21
-5.4982283464566928
0
LINE
8
BLACK
6
CONTINUOUS
10
3.6594488188976375
20
-5.4982283464566928
11
3.6590721653543308
21
-5.4981534251968505
0
LINE
8
BLACK
6
CONTINUOUS
10
3.6590721653543308
20
-5.4981534251968505
11
3.658752874015748
21
-5.4979400787401573
0
LINE
8
BLACK
6
CONTINUOUS
10
3.658752874015748
20
-5.4979400787401573
11
2.873477244094488
21
-4.7126644881889765
0
LINE
8
BLACK
6
CONTINUOUS
10
2.873477244094488
20
-4.7126644881889765
11
2.8732638976377953
21
-4.712345157480315
0
LINE
8
BLACK
6
CONTINUOUS
10
2.8732638976377953
20
-4.712345157480315
11
2.8731889763779526
21
-4.7119685039370074
0
LINE
8
BLACK
6
CONTINUOUS
10
2.8731889763779526
20
-4.7119685039370074
11
2.8731889763779526
21
-2.3515748031496062
0
LINE
8
BLACK
6
CONTINUOUS
10
2.8731889763779526
20
-2.3515748031496062
11
2.8732638976377953
21
-2.351198149606299
0
LINE
8
BLACK
6
CONTINUOUS
10
2.8732638976377953
20
-2.351198149606299
11
2.873477244094488
21
-2.3508788188976379
0
LINE
8
BLACK
6
CONTINUOUS
10
2.873477244094488
20
-2.3508788188976379
11
3.0763118897637796
21
-2.1480442125984252
0
LINE
8
BLACK
6
CONTINUOUS
10
3.0763118897637796
20
-2.1480442125984252
11
3.0766312204724411
21
-2.1478308267716537
0
LINE
8
BLACK
6
CONTINUOUS
10
3.0766312204724411
20
-2.1478308267716537
11
3.0770078740157478
21
-2.1477559055118109
0
LINE
8
BLACK
6
CONTINUOUS
10
3.0770078740157478
20
-2.1477559055118109
11
6.6011811023622045
21
-2.1477559055118109
0
LINE
8
BLACK
6
CONTINUOUS
10
6.6011811023622045
20
-2.1477559055118109
11
6.6015577559055121
21
-2.1478308267716537
0
LINE
8
BLACK
6
CONTINUOUS
10
3.0774155511811023
20
-2.1497244094488188
11
2.8751574803149604
21
-2.3519824803149607
0
LINE
8
BLACK
6
CONTINUOUS
10
2.8751574803149604
20
-2.3519824803149607
11
2.8751574803149604
21
-4.7115607874015746
0
LINE
8
BLACK
6
CONTINUOUS
10
2.8751574803149604
20
-4.7115607874015746
11
3.659856496062992
21
-5.4962598425196854
0
LINE
8
BLACK
6
CONTINUOUS
10
3.659856496062992
20
-5.4962598425196854
11
7.8141338582677164
21
-5.4962598425196854
0
LINE
8
BLACK
6
CONTINUOUS
10
7.8141338582677164
20
-5.4962598425196854
11
7.8141338582677164
21
-3.6251574803149604
0
LINE
8
BLACK
6
CONTINUOUS
10
7.8141338582677164
20
-3.6251574803149604
11
7.2899842519685034
21
-3.6251574803149604
0
LINE
8
BLACK
6
CONTINUOUS
10
7.2899842519685034
20
-3.6251574803149604
11
7.2896075984251967
21
-3.6250825590551181
0
LINE
8
BLACK
6
CONTINUOUS
10
7.2896075984251967
20
-3.6250825590551181
11
7.2892883070866139
21
-3.624869212598425
0
LINE
8
BLACK
6
CONTINUOUS
10
7.2892883070866139
20
-3.624869212598425
11
6.8104851181102362
21
-3.146066062992126
0
LINE
8
BLACK
6
CONTINUOUS
10
6.8104851181102362
20
-3.146066062992126
11
6.810271771653543
21
-3.1457467322834645
0
LINE
8
BLACK
6
CONTINUOUS
10
6.810271771653543
20
-3.1457467322834645
11
6.8101968503937007
21
-3.1453700787401573
0
LINE
8
BLACK
6
CONTINUOUS
10
6.8101968503937007
20
-3.1453700787401573
11
6.8101968503937007
21
-2.3591478740157479
0
LINE
8
BLACK
6
CONTINUOUS
10
6.8101968503937007
20
-2.3591478740157479
11
6.6007733858267716
21
-2.1497244094488188
0
LINE
8
BLACK
6
CONTINUOUS
10
6.6007733858267716
20
-2.1497244094488188
11
3.0774155511811023
21
-2.1497244094488188
  0
ENDSEC
  0
EOF
