%TF.GenerationSoftware,KiCad,Pcbnew,9.0.3*%
%TF.CreationDate,2025-07-27T18:33:32+02:00*%
%TF.ProjectId,Tastatur,54617374-6174-4757-922e-6b696361645f,0*%
%TF.SameCoordinates,Original*%
%TF.FileFunction,Copper,L2,Bot*%
%TF.FilePolarity,Positive*%
%FSLAX46Y46*%
G04 Gerber Fmt 4.6, Leading zero omitted, Abs format (unit mm)*
G04 Created by KiCad (PCBNEW 9.0.3) date 2025-07-27 18:33:32*
%MOMM*%
%LPD*%
G01*
G04 APERTURE LIST*
G04 Aperture macros list*
%AMRoundRect*
0 Rectangle with rounded corners*
0 $1 Rounding radius*
0 $2 $3 $4 $5 $6 $7 $8 $9 X,Y pos of 4 corners*
0 Add a 4 corners polygon primitive as box body*
4,1,4,$2,$3,$4,$5,$6,$7,$8,$9,$2,$3,0*
0 Add four circle primitives for the rounded corners*
1,1,$1+$1,$2,$3*
1,1,$1+$1,$4,$5*
1,1,$1+$1,$6,$7*
1,1,$1+$1,$8,$9*
0 Add four rect primitives between the rounded corners*
20,1,$1+$1,$2,$3,$4,$5,0*
20,1,$1+$1,$4,$5,$6,$7,0*
20,1,$1+$1,$6,$7,$8,$9,0*
20,1,$1+$1,$8,$9,$2,$3,0*%
G04 Aperture macros list end*
%TA.AperFunction,ComponentPad*%
%ADD10C,2.500000*%
%TD*%
%TA.AperFunction,ComponentPad*%
%ADD11C,0.700000*%
%TD*%
%TA.AperFunction,ComponentPad*%
%ADD12O,1.100000X2.000000*%
%TD*%
%TA.AperFunction,ComponentPad*%
%ADD13O,1.200000X1.800000*%
%TD*%
%TA.AperFunction,ComponentPad*%
%ADD14RoundRect,0.250000X0.625000X-0.350000X0.625000X0.350000X-0.625000X0.350000X-0.625000X-0.350000X0*%
%TD*%
%TA.AperFunction,ComponentPad*%
%ADD15O,1.750000X1.200000*%
%TD*%
%TA.AperFunction,ComponentPad*%
%ADD16R,2.000000X0.900000*%
%TD*%
%TA.AperFunction,ComponentPad*%
%ADD17RoundRect,1.025000X-1.025000X1.025000X-1.025000X-1.025000X1.025000X-1.025000X1.025000X1.025000X0*%
%TD*%
%TA.AperFunction,ComponentPad*%
%ADD18C,4.100000*%
%TD*%
%TA.AperFunction,SMDPad,CuDef*%
%ADD19R,3.510000X2.540000*%
%TD*%
G04 APERTURE END LIST*
D10*
%TO.P,SW207,1,1*%
%TO.N,/COL1*%
X99320000Y-84590000D03*
%TO.P,SW207,2,2*%
%TO.N,Net-(D207-A)*%
X105670000Y-82050000D03*
%TD*%
D11*
%TO.P,USB101,*%
%TO.N,*%
X190220000Y-134844000D03*
X196000000Y-134844000D03*
D12*
%TO.P,USB101,13,SHELL*%
%TO.N,GND*%
X188790000Y-134314000D03*
D13*
X188790000Y-138524000D03*
D12*
%TO.P,USB101,14,SHELL*%
X197430000Y-134314000D03*
D13*
X197430000Y-138524000D03*
%TD*%
D10*
%TO.P,SW203,1,1*%
%TO.N,/COL2*%
X119320000Y-62090000D03*
%TO.P,SW203,2,2*%
%TO.N,Net-(D203-A)*%
X125670000Y-59550000D03*
%TD*%
%TO.P,SW216,1,1*%
%TO.N,/COL1*%
X99320000Y-124590000D03*
%TO.P,SW216,2,2*%
%TO.N,Net-(D216-A)*%
X105670000Y-122050000D03*
%TD*%
%TO.P,SW212,1,1*%
%TO.N,/COL1*%
X99320000Y-104590000D03*
%TO.P,SW212,2,2*%
%TO.N,Net-(D212-A)*%
X105670000Y-102050000D03*
%TD*%
D14*
%TO.P,J102,1,Pin_1*%
%TO.N,GND*%
X196626000Y-123062000D03*
D15*
%TO.P,J102,2,Pin_2*%
%TO.N,+3V3*%
X196626000Y-121062000D03*
%TO.P,J102,3,Pin_3*%
%TO.N,/TCK*%
X196626000Y-119062000D03*
%TO.P,J102,4,Pin_4*%
%TO.N,/TIO*%
X196626000Y-117062000D03*
%TD*%
D10*
%TO.P,SW213,1,1*%
%TO.N,/COL2*%
X119320000Y-102090000D03*
%TO.P,SW213,2,2*%
%TO.N,Net-(D213-A)*%
X125670000Y-99550000D03*
%TD*%
%TO.P,SW211,1,1*%
%TO.N,/COL0*%
X79320000Y-107090000D03*
%TO.P,SW211,2,2*%
%TO.N,Net-(D211-A)*%
X85670000Y-104550000D03*
%TD*%
%TO.P,SW215,1,1*%
%TO.N,/COL4*%
X159320000Y-107090000D03*
%TO.P,SW215,2,2*%
%TO.N,Net-(D215-A)*%
X165670000Y-104550000D03*
%TD*%
D16*
%TO.P,J103,*%
%TO.N,*%
X197097000Y-92735000D03*
X197097000Y-106235000D03*
D17*
%TO.P,J103,1,Pin_1*%
%TO.N,Net-(J103-Pin_1)*%
X191097000Y-95885000D03*
D18*
%TO.P,J103,2,Pin_2*%
%TO.N,GND*%
X191097000Y-103085000D03*
%TD*%
D10*
%TO.P,SW209,1,1*%
%TO.N,/COL3*%
X139320000Y-84590000D03*
%TO.P,SW209,2,2*%
%TO.N,Net-(D209-A)*%
X145670000Y-82050000D03*
%TD*%
%TO.P,SW204,1,1*%
%TO.N,/COL3*%
X139320000Y-64590000D03*
%TO.P,SW204,2,2*%
%TO.N,Net-(D204-A)*%
X145670000Y-62050000D03*
%TD*%
%TO.P,SW210,1,1*%
%TO.N,/COL4*%
X159320000Y-87090000D03*
%TO.P,SW210,2,2*%
%TO.N,Net-(D210-A)*%
X165670000Y-84550000D03*
%TD*%
%TO.P,SW206,1,1*%
%TO.N,/COL0*%
X79320000Y-87090000D03*
%TO.P,SW206,2,2*%
%TO.N,Net-(D206-A)*%
X85670000Y-84550000D03*
%TD*%
%TO.P,SW202,1,1*%
%TO.N,/COL1*%
X99320000Y-64590000D03*
%TO.P,SW202,2,2*%
%TO.N,Net-(D202-A)*%
X105670000Y-62050000D03*
%TD*%
%TO.P,SW218,1,1*%
%TO.N,/COL3*%
X139320000Y-124590000D03*
%TO.P,SW218,2,2*%
%TO.N,Net-(D218-A)*%
X145670000Y-122050000D03*
%TD*%
%TO.P,SW205,1,1*%
%TO.N,/COL4*%
X159320000Y-67090000D03*
%TO.P,SW205,2,2*%
%TO.N,Net-(D205-A)*%
X165670000Y-64550000D03*
%TD*%
%TO.P,SW208,1,1*%
%TO.N,/COL2*%
X119320000Y-82090000D03*
%TO.P,SW208,2,2*%
%TO.N,Net-(D208-A)*%
X125670000Y-79550000D03*
%TD*%
%TO.P,SW214,1,1*%
%TO.N,/COL3*%
X139320000Y-104590000D03*
%TO.P,SW214,2,2*%
%TO.N,Net-(D214-A)*%
X145670000Y-102050000D03*
%TD*%
%TO.P,SW201,1,1*%
%TO.N,/COL0*%
X79320000Y-67090000D03*
%TO.P,SW201,2,2*%
%TO.N,Net-(D201-A)*%
X85670000Y-64550000D03*
%TD*%
%TO.P,SW217,1,1*%
%TO.N,/COL2*%
X119320000Y-122090000D03*
%TO.P,SW217,2,2*%
%TO.N,Net-(D217-A)*%
X125670000Y-119550000D03*
%TD*%
%TO.P,SW219,1,1*%
%TO.N,/COL4*%
X159320000Y-127090000D03*
%TO.P,SW219,2,2*%
%TO.N,Net-(D219-A)*%
X165670000Y-124550000D03*
%TD*%
D19*
%TO.P,BT101,1,+*%
%TO.N,/VBAT*%
X180370000Y-102382000D03*
%TO.P,BT101,2,-*%
%TO.N,GND*%
X180370000Y-131742000D03*
%TD*%
M02*
