%TF.GenerationSoftware,KiCad,Pcbnew,9.0.3*%
%TF.CreationDate,2025-07-27T18:33:32+02:00*%
%TF.ProjectId,Tastatur,54617374-6174-4757-922e-6b696361645f,0*%
%TF.SameCoordinates,Original*%
%TF.FileFunction,Copper,L1,Top*%
%TF.FilePolarity,Positive*%
%FSLAX46Y46*%
G04 Gerber Fmt 4.6, Leading zero omitted, Abs format (unit mm)*
G04 Created by KiCad (PCBNEW 9.0.3) date 2025-07-27 18:33:32*
%MOMM*%
%LPD*%
G01*
G04 APERTURE LIST*
G04 Aperture macros list*
%AMRoundRect*
0 Rectangle with rounded corners*
0 $1 Rounding radius*
0 $2 $3 $4 $5 $6 $7 $8 $9 X,Y pos of 4 corners*
0 Add a 4 corners polygon primitive as box body*
4,1,4,$2,$3,$4,$5,$6,$7,$8,$9,$2,$3,0*
0 Add four circle primitives for the rounded corners*
1,1,$1+$1,$2,$3*
1,1,$1+$1,$4,$5*
1,1,$1+$1,$6,$7*
1,1,$1+$1,$8,$9*
0 Add four rect primitives between the rounded corners*
20,1,$1+$1,$2,$3,$4,$5,0*
20,1,$1+$1,$4,$5,$6,$7,0*
20,1,$1+$1,$6,$7,$8,$9,0*
20,1,$1+$1,$8,$9,$2,$3,0*%
G04 Aperture macros list end*
%TA.AperFunction,ComponentPad*%
%ADD10C,2.500000*%
%TD*%
%TA.AperFunction,SMDPad,CuDef*%
%ADD11RoundRect,0.125000X0.125000X-0.125000X0.125000X0.125000X-0.125000X0.125000X-0.125000X-0.125000X0*%
%TD*%
%TA.AperFunction,SMDPad,CuDef*%
%ADD12RoundRect,0.237500X-0.300000X-0.237500X0.300000X-0.237500X0.300000X0.237500X-0.300000X0.237500X0*%
%TD*%
%TA.AperFunction,SMDPad,CuDef*%
%ADD13RoundRect,0.200000X-0.200000X0.750000X-0.200000X-0.750000X0.200000X-0.750000X0.200000X0.750000X0*%
%TD*%
%TA.AperFunction,ComponentPad*%
%ADD14C,0.700000*%
%TD*%
%TA.AperFunction,SMDPad,CuDef*%
%ADD15R,0.550000X1.100000*%
%TD*%
%TA.AperFunction,SMDPad,CuDef*%
%ADD16R,0.300000X1.100000*%
%TD*%
%TA.AperFunction,ComponentPad*%
%ADD17O,1.100000X2.000000*%
%TD*%
%TA.AperFunction,ComponentPad*%
%ADD18O,1.200000X1.800000*%
%TD*%
%TA.AperFunction,SMDPad,CuDef*%
%ADD19R,1.000000X0.800000*%
%TD*%
%TA.AperFunction,SMDPad,CuDef*%
%ADD20R,0.700000X1.500000*%
%TD*%
%TA.AperFunction,SMDPad,CuDef*%
%ADD21RoundRect,0.062500X0.117500X0.062500X-0.117500X0.062500X-0.117500X-0.062500X0.117500X-0.062500X0*%
%TD*%
%TA.AperFunction,SMDPad,CuDef*%
%ADD22RoundRect,0.200000X-0.250000X-0.200000X0.250000X-0.200000X0.250000X0.200000X-0.250000X0.200000X0*%
%TD*%
%TA.AperFunction,SMDPad,CuDef*%
%ADD23RoundRect,0.237500X0.237500X-0.300000X0.237500X0.300000X-0.237500X0.300000X-0.237500X-0.300000X0*%
%TD*%
%TA.AperFunction,SMDPad,CuDef*%
%ADD24RoundRect,0.237500X0.250000X0.237500X-0.250000X0.237500X-0.250000X-0.237500X0.250000X-0.237500X0*%
%TD*%
%TA.AperFunction,SMDPad,CuDef*%
%ADD25R,2.700000X2.700000*%
%TD*%
%TA.AperFunction,SMDPad,CuDef*%
%ADD26O,0.750000X0.200000*%
%TD*%
%TA.AperFunction,SMDPad,CuDef*%
%ADD27O,0.200000X0.750000*%
%TD*%
%TA.AperFunction,SMDPad,CuDef*%
%ADD28RoundRect,0.150000X-0.150000X0.825000X-0.150000X-0.825000X0.150000X-0.825000X0.150000X0.825000X0*%
%TD*%
%TA.AperFunction,SMDPad,CuDef*%
%ADD29RoundRect,0.237500X0.237500X-0.250000X0.237500X0.250000X-0.237500X0.250000X-0.237500X-0.250000X0*%
%TD*%
%TA.AperFunction,SMDPad,CuDef*%
%ADD30RoundRect,0.218750X-0.218750X-0.256250X0.218750X-0.256250X0.218750X0.256250X-0.218750X0.256250X0*%
%TD*%
%TA.AperFunction,SMDPad,CuDef*%
%ADD31C,1.000000*%
%TD*%
%TA.AperFunction,SMDPad,CuDef*%
%ADD32RoundRect,0.237500X-0.287500X-0.237500X0.287500X-0.237500X0.287500X0.237500X-0.287500X0.237500X0*%
%TD*%
%TA.AperFunction,SMDPad,CuDef*%
%ADD33RoundRect,0.237500X-0.250000X-0.237500X0.250000X-0.237500X0.250000X0.237500X-0.250000X0.237500X0*%
%TD*%
%TA.AperFunction,SMDPad,CuDef*%
%ADD34RoundRect,0.237500X0.300000X0.237500X-0.300000X0.237500X-0.300000X-0.237500X0.300000X-0.237500X0*%
%TD*%
%TA.AperFunction,SMDPad,CuDef*%
%ADD35RoundRect,0.237500X-0.237500X0.300000X-0.237500X-0.300000X0.237500X-0.300000X0.237500X0.300000X0*%
%TD*%
%TA.AperFunction,SMDPad,CuDef*%
%ADD36RoundRect,0.150000X0.150000X-0.512500X0.150000X0.512500X-0.150000X0.512500X-0.150000X-0.512500X0*%
%TD*%
%TA.AperFunction,ComponentPad*%
%ADD37RoundRect,0.250000X0.625000X-0.350000X0.625000X0.350000X-0.625000X0.350000X-0.625000X-0.350000X0*%
%TD*%
%TA.AperFunction,ComponentPad*%
%ADD38O,1.750000X1.200000*%
%TD*%
%TA.AperFunction,SMDPad,CuDef*%
%ADD39RoundRect,0.250000X0.400000X1.450000X-0.400000X1.450000X-0.400000X-1.450000X0.400000X-1.450000X0*%
%TD*%
%TA.AperFunction,SMDPad,CuDef*%
%ADD40RoundRect,0.150000X-0.512500X-0.150000X0.512500X-0.150000X0.512500X0.150000X-0.512500X0.150000X0*%
%TD*%
%TA.AperFunction,SMDPad,CuDef*%
%ADD41RoundRect,0.175000X1.250000X0.175000X-1.250000X0.175000X-1.250000X-0.175000X1.250000X-0.175000X0*%
%TD*%
%TA.AperFunction,HeatsinkPad*%
%ADD42R,4.570000X4.450000*%
%TD*%
%TA.AperFunction,SMDPad,CuDef*%
%ADD43RoundRect,0.112500X-0.112500X-0.637500X0.112500X-0.637500X0.112500X0.637500X-0.112500X0.637500X0*%
%TD*%
%TA.AperFunction,ComponentPad*%
%ADD44R,2.000000X0.900000*%
%TD*%
%TA.AperFunction,ComponentPad*%
%ADD45RoundRect,1.025000X-1.025000X1.025000X-1.025000X-1.025000X1.025000X-1.025000X1.025000X1.025000X0*%
%TD*%
%TA.AperFunction,ComponentPad*%
%ADD46C,4.100000*%
%TD*%
%TA.AperFunction,SMDPad,CuDef*%
%ADD47RoundRect,0.237500X-0.237500X0.250000X-0.237500X-0.250000X0.237500X-0.250000X0.237500X0.250000X0*%
%TD*%
%TA.AperFunction,SMDPad,CuDef*%
%ADD48RoundRect,0.237500X0.237500X-0.287500X0.237500X0.287500X-0.237500X0.287500X-0.237500X-0.287500X0*%
%TD*%
%TA.AperFunction,SMDPad,CuDef*%
%ADD49RoundRect,0.250000X0.300000X-0.300000X0.300000X0.300000X-0.300000X0.300000X-0.300000X-0.300000X0*%
%TD*%
%TA.AperFunction,SMDPad,CuDef*%
%ADD50RoundRect,0.237500X-0.237500X0.287500X-0.237500X-0.287500X0.237500X-0.287500X0.237500X0.287500X0*%
%TD*%
%TA.AperFunction,SMDPad,CuDef*%
%ADD51RoundRect,0.250000X-0.275000X-0.700000X0.275000X-0.700000X0.275000X0.700000X-0.275000X0.700000X0*%
%TD*%
%TA.AperFunction,SMDPad,CuDef*%
%ADD52RoundRect,0.225000X0.225000X0.375000X-0.225000X0.375000X-0.225000X-0.375000X0.225000X-0.375000X0*%
%TD*%
%TA.AperFunction,SMDPad,CuDef*%
%ADD53RoundRect,0.200000X0.200000X-0.750000X0.200000X0.750000X-0.200000X0.750000X-0.200000X-0.750000X0*%
%TD*%
%TA.AperFunction,SMDPad,CuDef*%
%ADD54RoundRect,0.162500X0.617500X0.162500X-0.617500X0.162500X-0.617500X-0.162500X0.617500X-0.162500X0*%
%TD*%
%TA.AperFunction,SMDPad,CuDef*%
%ADD55RoundRect,0.250000X-0.550000X1.500000X-0.550000X-1.500000X0.550000X-1.500000X0.550000X1.500000X0*%
%TD*%
%TA.AperFunction,SMDPad,CuDef*%
%ADD56RoundRect,0.100000X0.637500X0.100000X-0.637500X0.100000X-0.637500X-0.100000X0.637500X-0.100000X0*%
%TD*%
%TA.AperFunction,Conductor*%
%ADD57C,0.100000*%
%TD*%
%TA.AperFunction,Conductor*%
%ADD58C,0.200000*%
%TD*%
G04 APERTURE END LIST*
D10*
%TO.P,SW207,1,1*%
%TO.N,/COL1*%
X99320000Y-84590000D03*
%TO.P,SW207,2,2*%
%TO.N,Net-(D207-A)*%
X105670000Y-82050000D03*
%TD*%
D11*
%TO.P,D265,1,DOUT*%
%TO.N,unconnected-(D265-DOUT-Pad1)*%
X162610000Y-115530000D03*
%TO.P,D265,2,VSS*%
%TO.N,GND*%
X163510000Y-115530000D03*
%TO.P,D265,3,DIN*%
%TO.N,Net-(D264-DOUT)*%
X163510000Y-114630000D03*
%TO.P,D265,4,VDD*%
%TO.N,+5V*%
X162610000Y-114630000D03*
%TD*%
D12*
%TO.P,C206,1*%
%TO.N,GND*%
X78310000Y-98230000D03*
%TO.P,C206,2*%
%TO.N,+5V*%
X80035000Y-98230000D03*
%TD*%
D13*
%TO.P,Q107,1,G*%
%TO.N,GND*%
X182844000Y-122378000D03*
%TO.P,Q107,2,S*%
%TO.N,+3V3*%
X180944000Y-122378000D03*
%TO.P,Q107,3,D*%
%TO.N,+3V3USB*%
X181894000Y-125378000D03*
%TD*%
D14*
%TO.P,USB101,*%
%TO.N,*%
X190220000Y-134844000D03*
X196000000Y-134844000D03*
D15*
%TO.P,USB101,1,GND*%
%TO.N,GND*%
X189910000Y-133764000D03*
%TO.P,USB101,2,VBUS*%
%TO.N,/VBUS*%
X190710000Y-133764000D03*
D16*
%TO.P,USB101,3,SBU2*%
%TO.N,unconnected-(USB101-SBU2-Pad3)*%
X191360000Y-133764000D03*
%TO.P,USB101,4,CC1*%
%TO.N,Net-(USB101-CC1)*%
X191860000Y-133764000D03*
%TO.P,USB101,5,DN2*%
%TO.N,/ED-*%
X192360000Y-133764000D03*
%TO.P,USB101,6,DP1*%
%TO.N,/ED+*%
X192860000Y-133764000D03*
%TO.P,USB101,7,DN1*%
%TO.N,/ED-*%
X193360000Y-133764000D03*
%TO.P,USB101,8,DP2*%
%TO.N,/ED+*%
X193860000Y-133764000D03*
%TO.P,USB101,9,SBU1*%
%TO.N,unconnected-(USB101-SBU1-Pad9)*%
X194360000Y-133764000D03*
%TO.P,USB101,10,CC2*%
%TO.N,Net-(USB101-CC2)*%
X194860000Y-133764000D03*
D15*
%TO.P,USB101,11,VBUS*%
%TO.N,/VBUS*%
X195510000Y-133764000D03*
%TO.P,USB101,12,GND*%
%TO.N,GND*%
X196310000Y-133764000D03*
D17*
%TO.P,USB101,13,SHELL*%
X188790000Y-134314000D03*
D18*
X188790000Y-138524000D03*
D17*
%TO.P,USB101,14,SHELL*%
X197430000Y-134314000D03*
D18*
X197430000Y-138524000D03*
%TD*%
D19*
%TO.P,SW221,*%
%TO.N,*%
X173636000Y-136762000D03*
X173636000Y-138972000D03*
X180936000Y-136762000D03*
X180936000Y-138972000D03*
D20*
%TO.P,SW221,1,B*%
%TO.N,/LEDTOGGLE*%
X175036000Y-136112000D03*
%TO.P,SW221,2,C*%
%TO.N,+3V3BAT*%
X178036000Y-136112000D03*
%TO.P,SW221,3,A*%
%TO.N,GND*%
X179536000Y-136112000D03*
%TD*%
D12*
%TO.P,C208,1*%
%TO.N,GND*%
X118310000Y-93230000D03*
%TO.P,C208,2*%
%TO.N,+5V*%
X120035000Y-93230000D03*
%TD*%
D21*
%TO.P,D213,1,K*%
%TO.N,/ROW2*%
X122710000Y-113430000D03*
%TO.P,D213,2,A*%
%TO.N,Net-(D213-A)*%
X123550000Y-113430000D03*
%TD*%
D13*
%TO.P,Q103,1,G*%
%TO.N,GND*%
X186400000Y-122378000D03*
%TO.P,Q103,2,S*%
%TO.N,+3V3*%
X184500000Y-122378000D03*
%TO.P,Q103,3,D*%
%TO.N,+3V3BAT*%
X185450000Y-125378000D03*
%TD*%
D11*
%TO.P,D269,1,DOUT*%
%TO.N,unconnected-(D269-DOUT-Pad1)*%
X162610000Y-135530000D03*
%TO.P,D269,2,VSS*%
%TO.N,GND*%
X163510000Y-135530000D03*
%TO.P,D269,3,DIN*%
%TO.N,Net-(D268-DOUT)*%
X163510000Y-134630000D03*
%TO.P,D269,4,VDD*%
%TO.N,+5V*%
X162610000Y-134630000D03*
%TD*%
D12*
%TO.P,C219,1*%
%TO.N,GND*%
X158310000Y-138230000D03*
%TO.P,C219,2*%
%TO.N,+5V*%
X160035000Y-138230000D03*
%TD*%
D11*
%TO.P,D254,1,DOUT*%
%TO.N,Net-(D254-DOUT)*%
X142610000Y-73030000D03*
%TO.P,D254,2,VSS*%
%TO.N,GND*%
X143510000Y-73030000D03*
%TO.P,D254,3,DIN*%
%TO.N,Net-(D253-DOUT)*%
X143510000Y-72130000D03*
%TO.P,D254,4,VDD*%
%TO.N,+5V*%
X142610000Y-72130000D03*
%TD*%
D22*
%TO.P,Y101,1,1*%
%TO.N,Net-(U102-X32MO)*%
X185544000Y-105664000D03*
%TO.P,Y101,2,2*%
%TO.N,GND*%
X186944000Y-105664000D03*
%TO.P,Y101,3,3*%
%TO.N,Net-(U102-X32MI)*%
X186944000Y-104564000D03*
%TO.P,Y101,4,4*%
%TO.N,GND*%
X185544000Y-104564000D03*
%TD*%
D10*
%TO.P,SW203,1,1*%
%TO.N,/COL2*%
X119320000Y-62090000D03*
%TO.P,SW203,2,2*%
%TO.N,Net-(D203-A)*%
X125670000Y-59550000D03*
%TD*%
D11*
%TO.P,D262,1,DOUT*%
%TO.N,Net-(D262-DOUT)*%
X102610000Y-113030000D03*
%TO.P,D262,2,VSS*%
%TO.N,GND*%
X103510000Y-113030000D03*
%TO.P,D262,3,DIN*%
%TO.N,Net-(D261-DOUT)*%
X103510000Y-112130000D03*
%TO.P,D262,4,VDD*%
%TO.N,+5V*%
X102610000Y-112130000D03*
%TD*%
D23*
%TO.P,C101,1*%
%TO.N,GND*%
X183896000Y-106323300D03*
%TO.P,C101,2*%
%TO.N,Net-(U102-VINTA)*%
X183896000Y-104598300D03*
%TD*%
D24*
%TO.P,R201,1*%
%TO.N,/Matrix/LEDDATA0*%
X175310000Y-94710000D03*
%TO.P,R201,2*%
%TO.N,Net-(D251-DIN)*%
X173485000Y-94710000D03*
%TD*%
D21*
%TO.P,D207,1,K*%
%TO.N,/ROW1*%
X102710000Y-95930000D03*
%TO.P,D207,2,A*%
%TO.N,Net-(D207-A)*%
X103550000Y-95930000D03*
%TD*%
D25*
%TO.P,U102,0,EGND*%
%TO.N,GND*%
X179754000Y-101461000D03*
D26*
%TO.P,U102,1,PA11*%
%TO.N,/COL1*%
X177829000Y-100261000D03*
%TO.P,U102,2,PA10*%
%TO.N,/COL2*%
X177829000Y-100661000D03*
%TO.P,U102,3,VDCID*%
%TO.N,Net-(U102-VDCID)*%
X177829000Y-101061000D03*
%TO.P,U102,4,VSW*%
%TO.N,Net-(U102-VSW)*%
X177829000Y-101461000D03*
%TO.P,U102,5,VIO33*%
%TO.N,+3V3*%
X177829000Y-101861000D03*
%TO.P,U102,6,PA8*%
%TO.N,/ROW3*%
X177829000Y-102261000D03*
%TO.P,U102,7,PA9*%
%TO.N,/COL3*%
X177829000Y-102661000D03*
D27*
%TO.P,U102,8,TCK*%
%TO.N,/TCK*%
X178554000Y-103386000D03*
%TO.P,U102,9,TIO*%
%TO.N,/TIO*%
X178954000Y-103386000D03*
%TO.P,U102,10,PB13*%
%TO.N,/ROW2*%
X179354000Y-103386000D03*
%TO.P,U102,11,PB12*%
%TO.N,/ROW1*%
X179754000Y-103386000D03*
%TO.P,U102,12,UD+*%
%TO.N,/D+*%
X180154000Y-103386000D03*
%TO.P,U102,13,UD-*%
%TO.N,/D-*%
X180554000Y-103386000D03*
%TO.P,U102,14,PB7*%
%TO.N,/ROW0*%
X180954000Y-103386000D03*
D26*
%TO.P,U102,15,PB4*%
%TO.N,/LEDDATA*%
X181679000Y-102661000D03*
%TO.P,U102,16,RST*%
%TO.N,GND*%
X181679000Y-102261000D03*
%TO.P,U102,17,PB22*%
%TO.N,/LEDSEL1*%
X181679000Y-101861000D03*
%TO.P,U102,18,X32MO*%
%TO.N,Net-(U102-X32MO)*%
X181679000Y-101461000D03*
%TO.P,U102,19,X32MI*%
%TO.N,Net-(U102-X32MI)*%
X181679000Y-101061000D03*
%TO.P,U102,20,VINTA*%
%TO.N,Net-(U102-VINTA)*%
X181679000Y-100661000D03*
%TO.P,U102,21,ANT*%
%TO.N,Net-(AE101-A)*%
X181679000Y-100261000D03*
D27*
%TO.P,U102,22,VDCIA*%
%TO.N,Net-(U102-VDCIA)*%
X180954000Y-99536000D03*
%TO.P,U102,23,PA4*%
%TO.N,/LEDSEL0*%
X180554000Y-99536000D03*
%TO.P,U102,24,PA5*%
%TO.N,/COL0*%
X180154000Y-99536000D03*
%TO.P,U102,25,PA15*%
%TO.N,/MISO*%
X179754000Y-99536000D03*
%TO.P,U102,26,PA14*%
%TO.N,/MOSI*%
X179354000Y-99536000D03*
%TO.P,U102,27,PA13*%
%TO.N,/SCK*%
X178954000Y-99536000D03*
%TO.P,U102,28,PA12*%
%TO.N,/COL4*%
X178554000Y-99536000D03*
%TD*%
D11*
%TO.P,D261,1,DOUT*%
%TO.N,Net-(D261-DOUT)*%
X82610000Y-115530000D03*
%TO.P,D261,2,VSS*%
%TO.N,GND*%
X83510000Y-115530000D03*
%TO.P,D261,3,DIN*%
%TO.N,Net-(D261-DIN)*%
X83510000Y-114630000D03*
%TO.P,D261,4,VDD*%
%TO.N,+5V*%
X82610000Y-114630000D03*
%TD*%
D12*
%TO.P,C207,1*%
%TO.N,GND*%
X98310000Y-95730000D03*
%TO.P,C207,2*%
%TO.N,+5V*%
X100035000Y-95730000D03*
%TD*%
D21*
%TO.P,D214,1,K*%
%TO.N,/ROW2*%
X142710000Y-115930000D03*
%TO.P,D214,2,A*%
%TO.N,Net-(D214-A)*%
X143550000Y-115930000D03*
%TD*%
D10*
%TO.P,SW216,1,1*%
%TO.N,/COL1*%
X99320000Y-124590000D03*
%TO.P,SW216,2,2*%
%TO.N,Net-(D216-A)*%
X105670000Y-122050000D03*
%TD*%
%TO.P,SW212,1,1*%
%TO.N,/COL1*%
X99320000Y-104590000D03*
%TO.P,SW212,2,2*%
%TO.N,Net-(D212-A)*%
X105670000Y-102050000D03*
%TD*%
D11*
%TO.P,D255,1,DOUT*%
%TO.N,unconnected-(D255-DOUT-Pad1)*%
X162610000Y-75530000D03*
%TO.P,D255,2,VSS*%
%TO.N,GND*%
X163510000Y-75530000D03*
%TO.P,D255,3,DIN*%
%TO.N,Net-(D254-DOUT)*%
X163510000Y-74630000D03*
%TO.P,D255,4,VDD*%
%TO.N,+5V*%
X162610000Y-74630000D03*
%TD*%
D21*
%TO.P,D205,1,K*%
%TO.N,/ROW0*%
X162710000Y-78430000D03*
%TO.P,D205,2,A*%
%TO.N,Net-(D205-A)*%
X163550000Y-78430000D03*
%TD*%
D12*
%TO.P,C201,1*%
%TO.N,GND*%
X78310000Y-78230000D03*
%TO.P,C201,2*%
%TO.N,+5V*%
X80035000Y-78230000D03*
%TD*%
%TO.P,C203,1*%
%TO.N,GND*%
X118310000Y-73230000D03*
%TO.P,C203,2*%
%TO.N,+5V*%
X120035000Y-73230000D03*
%TD*%
D28*
%TO.P,U107,1*%
%TO.N,Net-(R114-Pad1)*%
X177703000Y-114776000D03*
%TO.P,U107,2,-*%
%TO.N,Net-(D105-K)*%
X176433000Y-114776000D03*
%TO.P,U107,3,+*%
%TO.N,Net-(U107A-+)*%
X175163000Y-114776000D03*
%TO.P,U107,4,V-*%
%TO.N,GND*%
X173893000Y-114776000D03*
%TO.P,U107,5,+*%
X173893000Y-119726000D03*
%TO.P,U107,6,-*%
%TO.N,Net-(U107B--)*%
X175163000Y-119726000D03*
%TO.P,U107,7*%
X176433000Y-119726000D03*
%TO.P,U107,8,V+*%
%TO.N,/VBAT*%
X177703000Y-119726000D03*
%TD*%
D29*
%TO.P,R103,1*%
%TO.N,+5VUSB*%
X185544000Y-137815000D03*
%TO.P,R103,2*%
%TO.N,Net-(U103-EN)*%
X185544000Y-135990000D03*
%TD*%
D30*
%TO.P,D106,1,K*%
%TO.N,GND*%
X178790500Y-112014000D03*
%TO.P,D106,2,A*%
%TO.N,Net-(D106-A)*%
X180365500Y-112014000D03*
%TD*%
D31*
%TO.P,TP101,1,1*%
%TO.N,GND*%
X197231000Y-109855000D03*
%TD*%
D32*
%TO.P,L101,1,1*%
%TO.N,Net-(U102-VDCID)*%
X173522500Y-100806000D03*
%TO.P,L101,2,2*%
%TO.N,Net-(U102-VSW)*%
X175272500Y-100806000D03*
%TD*%
D21*
%TO.P,D215,1,K*%
%TO.N,/ROW2*%
X162710000Y-118430000D03*
%TO.P,D215,2,A*%
%TO.N,Net-(D215-A)*%
X163550000Y-118430000D03*
%TD*%
D11*
%TO.P,D263,1,DOUT*%
%TO.N,Net-(D263-DOUT)*%
X122610000Y-110530000D03*
%TO.P,D263,2,VSS*%
%TO.N,GND*%
X123510000Y-110530000D03*
%TO.P,D263,3,DIN*%
%TO.N,Net-(D262-DOUT)*%
X123510000Y-109630000D03*
%TO.P,D263,4,VDD*%
%TO.N,+5V*%
X122610000Y-109630000D03*
%TD*%
D12*
%TO.P,C204,1*%
%TO.N,GND*%
X138310000Y-75730000D03*
%TO.P,C204,2*%
%TO.N,+5V*%
X140035000Y-75730000D03*
%TD*%
D33*
%TO.P,R109,1*%
%TO.N,Net-(U105-PROG)*%
X188976000Y-113792000D03*
%TO.P,R109,2*%
%TO.N,GND*%
X190801000Y-113792000D03*
%TD*%
%TO.P,R114,1*%
%TO.N,Net-(R114-Pad1)*%
X179427500Y-113792000D03*
%TO.P,R114,2*%
%TO.N,Net-(D106-A)*%
X181252500Y-113792000D03*
%TD*%
D21*
%TO.P,D217,1,K*%
%TO.N,/ROW3*%
X122710000Y-133430000D03*
%TO.P,D217,2,A*%
%TO.N,Net-(D217-A)*%
X123550000Y-133430000D03*
%TD*%
D24*
%TO.P,R205,1*%
%TO.N,/LEDTOGGLE*%
X175290000Y-134146000D03*
%TO.P,R205,2*%
%TO.N,GND*%
X173465000Y-134146000D03*
%TD*%
D11*
%TO.P,D251,1,DOUT*%
%TO.N,Net-(D251-DOUT)*%
X82610000Y-75530000D03*
%TO.P,D251,2,VSS*%
%TO.N,GND*%
X83510000Y-75530000D03*
%TO.P,D251,3,DIN*%
%TO.N,Net-(D251-DIN)*%
X83510000Y-74630000D03*
%TO.P,D251,4,VDD*%
%TO.N,+5V*%
X82610000Y-74630000D03*
%TD*%
D34*
%TO.P,C114,1*%
%TO.N,/VBAT*%
X180978500Y-120364000D03*
%TO.P,C114,2*%
%TO.N,GND*%
X179253500Y-120364000D03*
%TD*%
D33*
%TO.P,R106,1*%
%TO.N,+3V3USB*%
X186008000Y-115570000D03*
%TO.P,R106,2*%
%TO.N,Net-(D103-A)*%
X187833000Y-115570000D03*
%TD*%
D35*
%TO.P,C110,1*%
%TO.N,+3V3USB*%
X182402000Y-132101000D03*
%TO.P,C110,2*%
%TO.N,GND*%
X182402000Y-133826000D03*
%TD*%
D36*
%TO.P,U101,1,I/O1*%
%TO.N,/ED+*%
X191212300Y-129915500D03*
%TO.P,U101,2,GND*%
%TO.N,GND*%
X192162300Y-129915500D03*
%TO.P,U101,3,I/O2*%
%TO.N,/ED-*%
X193112300Y-129915500D03*
%TO.P,U101,4,I/O2*%
%TO.N,/D-*%
X193112300Y-127640500D03*
%TO.P,U101,5,VBUS*%
%TO.N,/VBUS*%
X192162300Y-127640500D03*
%TO.P,U101,6,I/O1*%
%TO.N,/D+*%
X191212300Y-127640500D03*
%TD*%
D29*
%TO.P,R113,1*%
%TO.N,Net-(U107A-+)*%
X177292000Y-112522000D03*
%TO.P,R113,2*%
%TO.N,GND*%
X177292000Y-110697000D03*
%TD*%
D30*
%TO.P,D103,1,K*%
%TO.N,Net-(D103-K)*%
X185904500Y-113792000D03*
%TO.P,D103,2,A*%
%TO.N,Net-(D103-A)*%
X187479500Y-113792000D03*
%TD*%
D37*
%TO.P,J102,1,Pin_1*%
%TO.N,GND*%
X196626000Y-123062000D03*
D38*
%TO.P,J102,2,Pin_2*%
%TO.N,+3V3*%
X196626000Y-121062000D03*
%TO.P,J102,3,Pin_3*%
%TO.N,/TCK*%
X196626000Y-119062000D03*
%TO.P,J102,4,Pin_4*%
%TO.N,/TIO*%
X196626000Y-117062000D03*
%TD*%
D23*
%TO.P,C106,1*%
%TO.N,Net-(U102-X32MO)*%
X185521600Y-102970500D03*
%TO.P,C106,2*%
%TO.N,GND*%
X185521600Y-101245500D03*
%TD*%
D32*
%TO.P,L102,1,1*%
%TO.N,+3V3*%
X173502500Y-129066000D03*
%TO.P,L102,2,2*%
%TO.N,Net-(D102-A)*%
X175252500Y-129066000D03*
%TD*%
D10*
%TO.P,SW213,1,1*%
%TO.N,/COL2*%
X119320000Y-102090000D03*
%TO.P,SW213,2,2*%
%TO.N,Net-(D213-A)*%
X125670000Y-99550000D03*
%TD*%
D39*
%TO.P,F101,1*%
%TO.N,Net-(C109-Pad1)*%
X186375000Y-128746000D03*
%TO.P,F101,2*%
%TO.N,+5VUSB*%
X181925000Y-128746000D03*
%TD*%
D11*
%TO.P,D260,1,DOUT*%
%TO.N,unconnected-(D260-DOUT-Pad1)*%
X162610000Y-95530000D03*
%TO.P,D260,2,VSS*%
%TO.N,GND*%
X163510000Y-95530000D03*
%TO.P,D260,3,DIN*%
%TO.N,Net-(D259-DOUT)*%
X163510000Y-94630000D03*
%TO.P,D260,4,VDD*%
%TO.N,+5V*%
X162610000Y-94630000D03*
%TD*%
D40*
%TO.P,U104,1,SW*%
%TO.N,Net-(D102-A)*%
X173615500Y-130656000D03*
%TO.P,U104,2,GND*%
%TO.N,GND*%
X173615500Y-131606000D03*
%TO.P,U104,3,FB*%
%TO.N,Net-(U104-FB)*%
X173615500Y-132556000D03*
%TO.P,U104,4,EN*%
%TO.N,/LEDTOGGLE*%
X175890500Y-132556000D03*
%TO.P,U104,5,IN*%
%TO.N,+3V3*%
X175890500Y-131606000D03*
%TO.P,U104,6,NC*%
%TO.N,unconnected-(U104-NC-Pad6)*%
X175890500Y-130656000D03*
%TD*%
D12*
%TO.P,C209,1*%
%TO.N,GND*%
X138310000Y-95730000D03*
%TO.P,C209,2*%
%TO.N,+5V*%
X140035000Y-95730000D03*
%TD*%
D29*
%TO.P,R111,1*%
%TO.N,/VBAT*%
X184180000Y-120260500D03*
%TO.P,R111,2*%
%TO.N,Net-(U107A-+)*%
X184180000Y-118435500D03*
%TD*%
%TO.P,R108,1*%
%TO.N,Net-(Q105-G)*%
X175768000Y-112522000D03*
%TO.P,R108,2*%
%TO.N,/VBAT*%
X175768000Y-110697000D03*
%TD*%
D33*
%TO.P,R107,1*%
%TO.N,+3V3USB*%
X182706000Y-115570000D03*
%TO.P,R107,2*%
%TO.N,Net-(D104-A)*%
X184531000Y-115570000D03*
%TD*%
D11*
%TO.P,D252,1,DOUT*%
%TO.N,Net-(D252-DOUT)*%
X102610000Y-73030000D03*
%TO.P,D252,2,VSS*%
%TO.N,GND*%
X103510000Y-73030000D03*
%TO.P,D252,3,DIN*%
%TO.N,Net-(D251-DOUT)*%
X103510000Y-72130000D03*
%TO.P,D252,4,VDD*%
%TO.N,+5V*%
X102610000Y-72130000D03*
%TD*%
D41*
%TO.P,U105,1,TEMP*%
%TO.N,GND*%
X191389000Y-112362000D03*
%TO.P,U105,2,PROG*%
%TO.N,Net-(U105-PROG)*%
X191389000Y-111092000D03*
%TO.P,U105,3,GND*%
%TO.N,GND*%
X191389000Y-109822000D03*
%TO.P,U105,4,V_{CC}*%
%TO.N,+5VUSB*%
X191389000Y-108552000D03*
%TO.P,U105,5,BAT*%
%TO.N,/VBAT*%
X183089000Y-108552000D03*
%TO.P,U105,6,~{STDBY}*%
%TO.N,Net-(D103-K)*%
X183089000Y-109822000D03*
%TO.P,U105,7,~{CHRG}*%
%TO.N,Net-(D104-K)*%
X183089000Y-111092000D03*
%TO.P,U105,8,CE*%
%TO.N,+3V3USB*%
X183089000Y-112362000D03*
D42*
%TO.P,U105,9,EPAD*%
%TO.N,GND*%
X187239000Y-110457000D03*
%TD*%
D21*
%TO.P,D204,1,K*%
%TO.N,/ROW0*%
X142710000Y-75930000D03*
%TO.P,D204,2,A*%
%TO.N,Net-(D204-A)*%
X143550000Y-75930000D03*
%TD*%
D24*
%TO.P,R202,1*%
%TO.N,/Matrix/LEDDATA1*%
X175310000Y-96234000D03*
%TO.P,R202,2*%
%TO.N,Net-(D256-DIN)*%
X173485000Y-96234000D03*
%TD*%
D11*
%TO.P,D257,1,DOUT*%
%TO.N,Net-(D257-DOUT)*%
X102610000Y-93030000D03*
%TO.P,D257,2,VSS*%
%TO.N,GND*%
X103510000Y-93030000D03*
%TO.P,D257,3,DIN*%
%TO.N,Net-(D256-DOUT)*%
X103510000Y-92130000D03*
%TO.P,D257,4,VDD*%
%TO.N,+5V*%
X102610000Y-92130000D03*
%TD*%
D12*
%TO.P,C215,1*%
%TO.N,GND*%
X158310000Y-118230000D03*
%TO.P,C215,2*%
%TO.N,+5V*%
X160035000Y-118230000D03*
%TD*%
D11*
%TO.P,D264,1,DOUT*%
%TO.N,Net-(D264-DOUT)*%
X142610000Y-113030000D03*
%TO.P,D264,2,VSS*%
%TO.N,GND*%
X143510000Y-113030000D03*
%TO.P,D264,3,DIN*%
%TO.N,Net-(D263-DOUT)*%
X143510000Y-112130000D03*
%TO.P,D264,4,VDD*%
%TO.N,+5V*%
X142610000Y-112130000D03*
%TD*%
D34*
%TO.P,C104,1*%
%TO.N,+3V3*%
X175260000Y-103854000D03*
%TO.P,C104,2*%
%TO.N,GND*%
X173535000Y-103854000D03*
%TD*%
D10*
%TO.P,SW211,1,1*%
%TO.N,/COL0*%
X79320000Y-107090000D03*
%TO.P,SW211,2,2*%
%TO.N,Net-(D211-A)*%
X85670000Y-104550000D03*
%TD*%
D21*
%TO.P,D211,1,K*%
%TO.N,/ROW2*%
X82710000Y-118430000D03*
%TO.P,D211,2,A*%
%TO.N,Net-(D211-A)*%
X83550000Y-118430000D03*
%TD*%
%TO.P,D206,1,K*%
%TO.N,/ROW1*%
X82710000Y-98430000D03*
%TO.P,D206,2,A*%
%TO.N,Net-(D206-A)*%
X83550000Y-98430000D03*
%TD*%
D12*
%TO.P,C212,1*%
%TO.N,GND*%
X98310000Y-115730000D03*
%TO.P,C212,2*%
%TO.N,+5V*%
X100035000Y-115730000D03*
%TD*%
D11*
%TO.P,D258,1,DOUT*%
%TO.N,Net-(D258-DOUT)*%
X122610000Y-90530000D03*
%TO.P,D258,2,VSS*%
%TO.N,GND*%
X123510000Y-90530000D03*
%TO.P,D258,3,DIN*%
%TO.N,Net-(D257-DOUT)*%
X123510000Y-89630000D03*
%TO.P,D258,4,VDD*%
%TO.N,+5V*%
X122610000Y-89630000D03*
%TD*%
D10*
%TO.P,SW215,1,1*%
%TO.N,/COL4*%
X159320000Y-107090000D03*
%TO.P,SW215,2,2*%
%TO.N,Net-(D215-A)*%
X165670000Y-104550000D03*
%TD*%
D29*
%TO.P,R112,1*%
%TO.N,/VBAT*%
X182656000Y-120260500D03*
%TO.P,R112,2*%
%TO.N,Net-(D105-K)*%
X182656000Y-118435500D03*
%TD*%
D23*
%TO.P,C103,1*%
%TO.N,GND*%
X184021600Y-102970500D03*
%TO.P,C103,2*%
%TO.N,Net-(U102-VDCIA)*%
X184021600Y-101245500D03*
%TD*%
D43*
%TO.P,Q106,1,G*%
%TO.N,/VBAT*%
X173624000Y-108486000D03*
%TO.P,Q106,2,S*%
%TO.N,+3V3USB*%
X174924000Y-108486000D03*
%TO.P,Q106,3,D*%
%TO.N,Net-(Q105-G)*%
X174274000Y-105826000D03*
%TD*%
D29*
%TO.P,R101,1*%
%TO.N,Net-(USB101-CC2)*%
X197684000Y-129912500D03*
%TO.P,R101,2*%
%TO.N,GND*%
X197684000Y-128087500D03*
%TD*%
D30*
%TO.P,D104,1,K*%
%TO.N,Net-(D104-K)*%
X182831000Y-113792000D03*
%TO.P,D104,2,A*%
%TO.N,Net-(D104-A)*%
X184406000Y-113792000D03*
%TD*%
D12*
%TO.P,C216,1*%
%TO.N,GND*%
X98310000Y-135730000D03*
%TO.P,C216,2*%
%TO.N,+5V*%
X100035000Y-135730000D03*
%TD*%
D21*
%TO.P,D216,1,K*%
%TO.N,/ROW3*%
X102710000Y-135930000D03*
%TO.P,D216,2,A*%
%TO.N,Net-(D216-A)*%
X103550000Y-135930000D03*
%TD*%
%TO.P,D218,1,K*%
%TO.N,/ROW3*%
X142710000Y-135930000D03*
%TO.P,D218,2,A*%
%TO.N,Net-(D218-A)*%
X143550000Y-135930000D03*
%TD*%
%TO.P,D209,1,K*%
%TO.N,/ROW1*%
X142710000Y-95930000D03*
%TO.P,D209,2,A*%
%TO.N,Net-(D209-A)*%
X143550000Y-95930000D03*
%TD*%
D44*
%TO.P,J103,*%
%TO.N,*%
X197097000Y-92735000D03*
X197097000Y-106235000D03*
D45*
%TO.P,J103,1,Pin_1*%
%TO.N,Net-(J103-Pin_1)*%
X191097000Y-95885000D03*
D46*
%TO.P,J103,2,Pin_2*%
%TO.N,GND*%
X191097000Y-103085000D03*
%TD*%
D12*
%TO.P,C214,1*%
%TO.N,GND*%
X138310000Y-115730000D03*
%TO.P,C214,2*%
%TO.N,+5V*%
X140035000Y-115730000D03*
%TD*%
%TO.P,C108,1*%
%TO.N,GND*%
X173515000Y-127542000D03*
%TO.P,C108,2*%
%TO.N,+5VBAT*%
X175240000Y-127542000D03*
%TD*%
%TO.P,C211,1*%
%TO.N,GND*%
X78310000Y-118230000D03*
%TO.P,C211,2*%
%TO.N,+5V*%
X80035000Y-118230000D03*
%TD*%
D10*
%TO.P,SW209,1,1*%
%TO.N,/COL3*%
X139320000Y-84590000D03*
%TO.P,SW209,2,2*%
%TO.N,Net-(D209-A)*%
X145670000Y-82050000D03*
%TD*%
D21*
%TO.P,D201,1,K*%
%TO.N,/ROW0*%
X82710000Y-78430000D03*
%TO.P,D201,2,A*%
%TO.N,Net-(D201-A)*%
X83550000Y-78430000D03*
%TD*%
%TO.P,D212,1,K*%
%TO.N,/ROW2*%
X102710000Y-115930000D03*
%TO.P,D212,2,A*%
%TO.N,Net-(D212-A)*%
X103550000Y-115930000D03*
%TD*%
D11*
%TO.P,D268,1,DOUT*%
%TO.N,Net-(D268-DOUT)*%
X142610000Y-133030000D03*
%TO.P,D268,2,VSS*%
%TO.N,GND*%
X143510000Y-133030000D03*
%TO.P,D268,3,DIN*%
%TO.N,Net-(D267-DOUT)*%
X143510000Y-132130000D03*
%TO.P,D268,4,VDD*%
%TO.N,+5V*%
X142610000Y-132130000D03*
%TD*%
D21*
%TO.P,D208,1,K*%
%TO.N,/ROW1*%
X122710000Y-93430000D03*
%TO.P,D208,2,A*%
%TO.N,Net-(D208-A)*%
X123550000Y-93430000D03*
%TD*%
D34*
%TO.P,C111,1*%
%TO.N,GND*%
X180541000Y-110490000D03*
%TO.P,C111,2*%
%TO.N,+5VUSB*%
X178816000Y-110490000D03*
%TD*%
D10*
%TO.P,SW204,1,1*%
%TO.N,/COL3*%
X139320000Y-64590000D03*
%TO.P,SW204,2,2*%
%TO.N,Net-(D204-A)*%
X145670000Y-62050000D03*
%TD*%
D31*
%TO.P,TP104,1,1*%
%TO.N,+3V3USB*%
X195580000Y-111125000D03*
%TD*%
D12*
%TO.P,C113,1*%
%TO.N,+5V*%
X173535000Y-99282000D03*
%TO.P,C113,2*%
%TO.N,GND*%
X175260000Y-99282000D03*
%TD*%
D47*
%TO.P,R110,1*%
%TO.N,/VBAT*%
X174244000Y-110697000D03*
%TO.P,R110,2*%
%TO.N,+3V3USB*%
X174244000Y-112522000D03*
%TD*%
D12*
%TO.P,C217,1*%
%TO.N,GND*%
X118310000Y-133230000D03*
%TO.P,C217,2*%
%TO.N,+5V*%
X120035000Y-133230000D03*
%TD*%
D11*
%TO.P,D266,1,DOUT*%
%TO.N,Net-(D266-DOUT)*%
X102610000Y-133030000D03*
%TO.P,D266,2,VSS*%
%TO.N,GND*%
X103510000Y-133030000D03*
%TO.P,D266,3,DIN*%
%TO.N,Net-(D266-DIN)*%
X103510000Y-132130000D03*
%TO.P,D266,4,VDD*%
%TO.N,+5V*%
X102610000Y-132130000D03*
%TD*%
D12*
%TO.P,C210,1*%
%TO.N,GND*%
X158310000Y-98230000D03*
%TO.P,C210,2*%
%TO.N,+5V*%
X160035000Y-98230000D03*
%TD*%
D10*
%TO.P,SW210,1,1*%
%TO.N,/COL4*%
X159320000Y-87090000D03*
%TO.P,SW210,2,2*%
%TO.N,Net-(D210-A)*%
X165670000Y-84550000D03*
%TD*%
D21*
%TO.P,D202,1,K*%
%TO.N,/ROW0*%
X102710000Y-75930000D03*
%TO.P,D202,2,A*%
%TO.N,Net-(D202-A)*%
X103550000Y-75930000D03*
%TD*%
D35*
%TO.P,C109,1*%
%TO.N,Net-(C109-Pad1)*%
X194636000Y-128137500D03*
%TO.P,C109,2*%
%TO.N,GND*%
X194636000Y-129862500D03*
%TD*%
D48*
%TO.P,L103,1,1*%
%TO.N,/VBUS*%
X189636400Y-129907000D03*
%TO.P,L103,2,2*%
%TO.N,Net-(C109-Pad1)*%
X189636400Y-128157000D03*
%TD*%
D49*
%TO.P,D105,1,K*%
%TO.N,Net-(D105-K)*%
X179862000Y-118332000D03*
%TO.P,D105,2,A*%
%TO.N,GND*%
X179862000Y-115532000D03*
%TD*%
D12*
%TO.P,C213,1*%
%TO.N,GND*%
X118310000Y-113230000D03*
%TO.P,C213,2*%
%TO.N,+5V*%
X120035000Y-113230000D03*
%TD*%
D50*
%TO.P,D101,1,A1*%
%TO.N,GND*%
X196160000Y-128125000D03*
%TO.P,D101,2,A2*%
%TO.N,/VBUS*%
X196160000Y-129875000D03*
%TD*%
D12*
%TO.P,C202,1*%
%TO.N,GND*%
X98310000Y-75730000D03*
%TO.P,C202,2*%
%TO.N,+5V*%
X100035000Y-75730000D03*
%TD*%
D11*
%TO.P,D259,1,DOUT*%
%TO.N,Net-(D259-DOUT)*%
X142610000Y-93030000D03*
%TO.P,D259,2,VSS*%
%TO.N,GND*%
X143510000Y-93030000D03*
%TO.P,D259,3,DIN*%
%TO.N,Net-(D258-DOUT)*%
X143510000Y-92130000D03*
%TO.P,D259,4,VDD*%
%TO.N,+5V*%
X142610000Y-92130000D03*
%TD*%
D29*
%TO.P,R102,1*%
%TO.N,Net-(USB101-CC1)*%
X188112400Y-129944500D03*
%TO.P,R102,2*%
%TO.N,GND*%
X188112400Y-128119500D03*
%TD*%
D12*
%TO.P,C205,1*%
%TO.N,GND*%
X158310000Y-78230000D03*
%TO.P,C205,2*%
%TO.N,+5V*%
X160035000Y-78230000D03*
%TD*%
D10*
%TO.P,SW206,1,1*%
%TO.N,/COL0*%
X79320000Y-87090000D03*
%TO.P,SW206,2,2*%
%TO.N,Net-(D206-A)*%
X85670000Y-84550000D03*
%TD*%
D13*
%TO.P,Q101,1,G*%
%TO.N,GND*%
X179288000Y-122378000D03*
%TO.P,Q101,2,S*%
%TO.N,+5V*%
X177388000Y-122378000D03*
%TO.P,Q101,3,D*%
%TO.N,+5VBAT*%
X178338000Y-125378000D03*
%TD*%
D12*
%TO.P,C218,1*%
%TO.N,GND*%
X138310000Y-135730000D03*
%TO.P,C218,2*%
%TO.N,+5V*%
X140035000Y-135730000D03*
%TD*%
D51*
%TO.P,AE101,1,A*%
%TO.N,Net-(AE101-A)*%
X184048000Y-99212400D03*
%TO.P,AE101,2,Shield*%
%TO.N,GNDS*%
X187198000Y-99212400D03*
%TD*%
D10*
%TO.P,SW202,1,1*%
%TO.N,/COL1*%
X99320000Y-64590000D03*
%TO.P,SW202,2,2*%
%TO.N,Net-(D202-A)*%
X105670000Y-62050000D03*
%TD*%
%TO.P,SW218,1,1*%
%TO.N,/COL3*%
X139320000Y-124590000D03*
%TO.P,SW218,2,2*%
%TO.N,Net-(D218-A)*%
X145670000Y-122050000D03*
%TD*%
%TO.P,SW205,1,1*%
%TO.N,/COL4*%
X159320000Y-67090000D03*
%TO.P,SW205,2,2*%
%TO.N,Net-(D205-A)*%
X165670000Y-64550000D03*
%TD*%
D21*
%TO.P,D203,1,K*%
%TO.N,/ROW0*%
X122710000Y-73430000D03*
%TO.P,D203,2,A*%
%TO.N,Net-(D203-A)*%
X123550000Y-73430000D03*
%TD*%
D52*
%TO.P,D102,1,K*%
%TO.N,+5VBAT*%
X180114000Y-127984000D03*
%TO.P,D102,2,A*%
%TO.N,Net-(D102-A)*%
X176814000Y-127984000D03*
%TD*%
D10*
%TO.P,SW208,1,1*%
%TO.N,/COL2*%
X119320000Y-82090000D03*
%TO.P,SW208,2,2*%
%TO.N,Net-(D208-A)*%
X125670000Y-79550000D03*
%TD*%
%TO.P,SW214,1,1*%
%TO.N,/COL3*%
X139320000Y-104590000D03*
%TO.P,SW214,2,2*%
%TO.N,Net-(D214-A)*%
X145670000Y-102050000D03*
%TD*%
D34*
%TO.P,C102,1*%
%TO.N,Net-(U102-VDCID)*%
X175260000Y-102330000D03*
%TO.P,C102,2*%
%TO.N,GND*%
X173535000Y-102330000D03*
%TD*%
D10*
%TO.P,SW201,1,1*%
%TO.N,/COL0*%
X79320000Y-67090000D03*
%TO.P,SW201,2,2*%
%TO.N,Net-(D201-A)*%
X85670000Y-64550000D03*
%TD*%
D47*
%TO.P,R105,1*%
%TO.N,Net-(U104-FB)*%
X179354000Y-132001000D03*
%TO.P,R105,2*%
%TO.N,GND*%
X179354000Y-133826000D03*
%TD*%
D53*
%TO.P,Q104,1,G*%
%TO.N,GND*%
X185582000Y-96488000D03*
%TO.P,Q104,2,S*%
%TO.N,Net-(J103-Pin_1)*%
X187482000Y-96488000D03*
%TO.P,Q104,3,D*%
%TO.N,+3V3*%
X186532000Y-93488000D03*
%TD*%
D21*
%TO.P,D210,1,K*%
%TO.N,/ROW1*%
X162710000Y-98430000D03*
%TO.P,D210,2,A*%
%TO.N,Net-(D210-A)*%
X163550000Y-98430000D03*
%TD*%
D11*
%TO.P,D256,1,DOUT*%
%TO.N,Net-(D256-DOUT)*%
X82610000Y-95530000D03*
%TO.P,D256,2,VSS*%
%TO.N,GND*%
X83510000Y-95530000D03*
%TO.P,D256,3,DIN*%
%TO.N,Net-(D256-DIN)*%
X83510000Y-94630000D03*
%TO.P,D256,4,VDD*%
%TO.N,+5V*%
X82610000Y-94630000D03*
%TD*%
D31*
%TO.P,TP103,1,1*%
%TO.N,+5VUSB*%
X197231000Y-112395000D03*
%TD*%
D10*
%TO.P,SW217,1,1*%
%TO.N,/COL2*%
X119320000Y-122090000D03*
%TO.P,SW217,2,2*%
%TO.N,Net-(D217-A)*%
X125670000Y-119550000D03*
%TD*%
D13*
%TO.P,Q102,1,G*%
%TO.N,GND*%
X175710000Y-122378000D03*
%TO.P,Q102,2,S*%
%TO.N,+5V*%
X173810000Y-122378000D03*
%TO.P,Q102,3,D*%
%TO.N,+5VUSB*%
X174760000Y-125378000D03*
%TD*%
D11*
%TO.P,D267,1,DOUT*%
%TO.N,Net-(D267-DOUT)*%
X122610000Y-130530000D03*
%TO.P,D267,2,VSS*%
%TO.N,GND*%
X123510000Y-130530000D03*
%TO.P,D267,3,DIN*%
%TO.N,Net-(D266-DOUT)*%
X123510000Y-129630000D03*
%TO.P,D267,4,VDD*%
%TO.N,+5V*%
X122610000Y-129630000D03*
%TD*%
D54*
%TO.P,U103,1,VIN*%
%TO.N,+5VUSB*%
X186974000Y-133826000D03*
%TO.P,U103,2,GND*%
%TO.N,GND*%
X186974000Y-132876000D03*
%TO.P,U103,3,EN*%
%TO.N,Net-(U103-EN)*%
X186974000Y-131926000D03*
%TO.P,U103,4,NC*%
%TO.N,unconnected-(U103-NC-Pad4)*%
X184274000Y-131926000D03*
%TO.P,U103,5,VOUT*%
%TO.N,+3V3USB*%
X184274000Y-133826000D03*
%TD*%
D55*
%TO.P,C112,1*%
%TO.N,+3V3*%
X190784000Y-117696000D03*
%TO.P,C112,2*%
%TO.N,GND*%
X190784000Y-123096000D03*
%TD*%
D24*
%TO.P,R203,1*%
%TO.N,/Matrix/LEDDATA2*%
X175310000Y-97758000D03*
%TO.P,R203,2*%
%TO.N,Net-(D261-DIN)*%
X173485000Y-97758000D03*
%TD*%
%TO.P,R204,1*%
%TO.N,/Matrix/LEDDATA3*%
X175310000Y-93186000D03*
%TO.P,R204,2*%
%TO.N,Net-(D266-DIN)*%
X173485000Y-93186000D03*
%TD*%
D56*
%TO.P,U106,1,Y0*%
%TO.N,GND*%
X182948500Y-97525000D03*
%TO.P,U106,2,Y2*%
X182948500Y-96875000D03*
%TO.P,U106,3,Y*%
X182948500Y-96225000D03*
%TO.P,U106,4,Y3*%
X182948500Y-95575000D03*
%TO.P,U106,5,Y1*%
X182948500Y-94925000D03*
%TO.P,U106,6,INH*%
%TO.N,/LEDTOGGLE*%
X182948500Y-94275000D03*
%TO.P,U106,7,VEE*%
%TO.N,GND*%
X182948500Y-93625000D03*
%TO.P,U106,8,VSS*%
X182948500Y-92975000D03*
%TO.P,U106,9,B*%
%TO.N,/LEDSEL1*%
X177223500Y-92975000D03*
%TO.P,U106,10,A*%
%TO.N,/LEDSEL0*%
X177223500Y-93625000D03*
%TO.P,U106,11,X3*%
%TO.N,/Matrix/LEDDATA3*%
X177223500Y-94275000D03*
%TO.P,U106,12,X0*%
%TO.N,/Matrix/LEDDATA0*%
X177223500Y-94925000D03*
%TO.P,U106,13,X*%
%TO.N,/LEDDATA*%
X177223500Y-95575000D03*
%TO.P,U106,14,X1*%
%TO.N,/Matrix/LEDDATA1*%
X177223500Y-96225000D03*
%TO.P,U106,15,X2*%
%TO.N,/Matrix/LEDDATA2*%
X177223500Y-96875000D03*
%TO.P,U106,16,VDD*%
%TO.N,+5V*%
X177223500Y-97525000D03*
%TD*%
D11*
%TO.P,D253,1,DOUT*%
%TO.N,Net-(D253-DOUT)*%
X122610000Y-70530000D03*
%TO.P,D253,2,VSS*%
%TO.N,GND*%
X123510000Y-70530000D03*
%TO.P,D253,3,DIN*%
%TO.N,Net-(D252-DOUT)*%
X123510000Y-69630000D03*
%TO.P,D253,4,VDD*%
%TO.N,+5V*%
X122610000Y-69630000D03*
%TD*%
D23*
%TO.P,C107,1*%
%TO.N,GND*%
X180878000Y-133826000D03*
%TO.P,C107,2*%
%TO.N,+3V3*%
X180878000Y-132101000D03*
%TD*%
D10*
%TO.P,SW219,1,1*%
%TO.N,/COL4*%
X159320000Y-127090000D03*
%TO.P,SW219,2,2*%
%TO.N,Net-(D219-A)*%
X165670000Y-124550000D03*
%TD*%
D23*
%TO.P,C105,1*%
%TO.N,Net-(U102-X32MI)*%
X187021600Y-102970500D03*
%TO.P,C105,2*%
%TO.N,GND*%
X187021600Y-101245500D03*
%TD*%
D29*
%TO.P,R104,1*%
%TO.N,+5VBAT*%
X177830000Y-133826000D03*
%TO.P,R104,2*%
%TO.N,Net-(U104-FB)*%
X177830000Y-132001000D03*
%TD*%
D53*
%TO.P,Q105,1,G*%
%TO.N,Net-(Q105-G)*%
X177068000Y-108426000D03*
%TO.P,Q105,2,S*%
%TO.N,/VBAT*%
X178968000Y-108426000D03*
%TO.P,Q105,3,D*%
%TO.N,+3V3BAT*%
X178018000Y-105426000D03*
%TD*%
D21*
%TO.P,D219,1,K*%
%TO.N,/ROW3*%
X162710000Y-138430000D03*
%TO.P,D219,2,A*%
%TO.N,Net-(D219-A)*%
X163550000Y-138430000D03*
%TD*%
D57*
%TO.N,GND*%
X123510000Y-130530000D02*
X124180000Y-130530000D01*
X123109000Y-130129000D02*
X123109000Y-129387214D01*
X104074000Y-133030000D02*
X104648000Y-133604000D01*
X178536000Y-111759500D02*
X177546000Y-111759500D01*
X180541000Y-110490000D02*
X181356000Y-110490000D01*
X194636000Y-129104000D02*
X194564000Y-129032000D01*
X173515000Y-127542000D02*
X173515000Y-126271000D01*
X83510000Y-115530000D02*
X84288000Y-115530000D01*
X103510000Y-133030000D02*
X104074000Y-133030000D01*
X173893000Y-119726000D02*
X173477000Y-120142000D01*
X178790500Y-112014000D02*
X178536000Y-111759500D01*
X179354000Y-133826000D02*
X179354000Y-135930000D01*
X182118000Y-103825000D02*
X182118000Y-103927002D01*
X186400000Y-119852000D02*
X185674000Y-119126000D01*
X185544000Y-104518000D02*
X184658000Y-103632000D01*
X173893000Y-113695000D02*
X173736000Y-113538000D01*
X181356000Y-99859000D02*
X181356000Y-99822000D01*
X173477000Y-120142000D02*
X172974000Y-120142000D01*
X182948500Y-93625000D02*
X181457000Y-93625000D01*
X177787000Y-125489000D02*
X177038000Y-126238000D01*
X182948500Y-96875000D02*
X184303000Y-96875000D01*
X175260000Y-99282000D02*
X174634000Y-99908000D01*
X184021600Y-102970500D02*
X184021600Y-102995600D01*
X175710000Y-122378000D02*
X174752000Y-121420000D01*
X124180000Y-130530000D02*
X124714000Y-131064000D01*
X194636000Y-129862500D02*
X194636000Y-129104000D01*
X123510000Y-130530000D02*
X123109000Y-130129000D01*
X123109000Y-129387214D02*
X123972214Y-128524000D01*
X164190000Y-135530000D02*
X164846000Y-134874000D01*
X184021600Y-102995600D02*
X184658000Y-103632000D01*
X84246000Y-96266000D02*
X84328000Y-96266000D01*
X197358000Y-133350000D02*
X196342000Y-133350000D01*
X173535000Y-103854000D02*
X173535000Y-103177000D01*
X123972214Y-128524000D02*
X124460000Y-128524000D01*
X179288000Y-122378000D02*
X177787000Y-123879000D01*
X180554000Y-102261000D02*
X179754000Y-101461000D01*
X164566000Y-95530000D02*
X164846000Y-95250000D01*
X172732966Y-131606000D02*
X172140000Y-132198966D01*
X163510000Y-95530000D02*
X164566000Y-95530000D01*
X191008000Y-112014000D02*
X191262000Y-111760000D01*
X191008000Y-112268000D02*
X191008000Y-112014000D01*
X177787000Y-123879000D02*
X177787000Y-125489000D01*
X186500000Y-133350000D02*
X185928000Y-133350000D01*
X181457000Y-93625000D02*
X181356000Y-93726000D01*
X179754000Y-101461000D02*
X179754000Y-101422000D01*
X173515000Y-126271000D02*
X173482000Y-126238000D01*
X83510000Y-95530000D02*
X84246000Y-96266000D01*
X179354000Y-135930000D02*
X179536000Y-136112000D01*
X182594000Y-133826000D02*
X183642000Y-134874000D01*
X184221000Y-94925000D02*
X184404000Y-94742000D01*
X182844000Y-122378000D02*
X180629000Y-124593000D01*
X181679000Y-102261000D02*
X180554000Y-102261000D01*
X173535000Y-103177000D02*
X173482000Y-103124000D01*
X173893000Y-114776000D02*
X173893000Y-113695000D01*
X180629000Y-124593000D02*
X180340000Y-124593000D01*
X173884000Y-99908000D02*
X173736000Y-100056000D01*
X192162300Y-130948300D02*
X192278000Y-131064000D01*
X180848000Y-115532000D02*
X179862000Y-115532000D01*
X192162300Y-129915500D02*
X192162300Y-130948300D01*
X163510000Y-135530000D02*
X164190000Y-135530000D01*
X173465000Y-134146000D02*
X173008000Y-134146000D01*
X186400000Y-122378000D02*
X186400000Y-119852000D01*
X173008000Y-134146000D02*
X172212000Y-133350000D01*
X174752000Y-121420000D02*
X174752000Y-121412000D01*
X172140000Y-132198966D02*
X172140000Y-133278000D01*
X123109000Y-70129000D02*
X123109000Y-68661000D01*
X179754000Y-101461000D02*
X181356000Y-99859000D01*
X196342000Y-133350000D02*
X196088000Y-133096000D01*
X123510000Y-70530000D02*
X123109000Y-70129000D01*
X179754000Y-101422000D02*
X178154000Y-99822000D01*
X186974000Y-132876000D02*
X186500000Y-133350000D01*
X185521600Y-99466400D02*
X185674000Y-99314000D01*
X174634000Y-99908000D02*
X173884000Y-99908000D01*
X182402000Y-133826000D02*
X182594000Y-133826000D01*
X172140000Y-133278000D02*
X172212000Y-133350000D01*
X173615500Y-131606000D02*
X172732966Y-131606000D01*
X185544000Y-104564000D02*
X185544000Y-104518000D01*
X179754000Y-101461000D02*
X182118000Y-103825000D01*
X185521600Y-101245500D02*
X185521600Y-99466400D01*
X123109000Y-68661000D02*
X123444000Y-68326000D01*
X177292000Y-111505500D02*
X177546000Y-111759500D01*
X182948500Y-94925000D02*
X184221000Y-94925000D01*
X84288000Y-115530000D02*
X84582000Y-115824000D01*
X177292000Y-110697000D02*
X177292000Y-111505500D01*
X184303000Y-96875000D02*
X184404000Y-96774000D01*
D58*
%TO.N,/VBUS*%
X195510000Y-130525000D02*
X196160000Y-129875000D01*
X192024000Y-128524000D02*
X192024000Y-127778800D01*
X193802000Y-129286000D02*
X193548000Y-129032000D01*
X193548000Y-129032000D02*
X193294000Y-129032000D01*
X195510000Y-132658000D02*
X196596000Y-131572000D01*
X193294000Y-129032000D02*
X192162300Y-127900300D01*
X190710000Y-133764000D02*
X190710000Y-131782000D01*
X192024000Y-127778800D02*
X192162300Y-127640500D01*
X193802000Y-131064000D02*
X193802000Y-129286000D01*
X190710000Y-131782000D02*
X189992000Y-131064000D01*
X190710000Y-130980600D02*
X189636400Y-129907000D01*
X195510000Y-133764000D02*
X195510000Y-132658000D01*
X192162300Y-127873164D02*
X192162300Y-127640500D01*
X192162300Y-127900300D02*
X192162300Y-127640500D01*
X195510000Y-133764000D02*
X195510000Y-130525000D01*
X191643000Y-128905000D02*
X192024000Y-128524000D01*
X190710000Y-133764000D02*
X190710000Y-130980600D01*
D57*
%TO.N,/ROW1*%
X161805500Y-96901000D02*
X162687000Y-97782500D01*
X102710000Y-97442000D02*
X102710000Y-95930000D01*
X82710000Y-97884000D02*
X82804000Y-97790000D01*
X142710000Y-96812000D02*
X142710000Y-95930000D01*
X162687000Y-99060000D02*
X162687000Y-98453000D01*
X162687000Y-98407000D02*
X162710000Y-98430000D01*
X102616000Y-97536000D02*
X102710000Y-97442000D01*
X179754000Y-103386000D02*
X179753999Y-104013000D01*
X122682000Y-97028000D02*
X122710000Y-97000000D01*
X82710000Y-98430000D02*
X82710000Y-97884000D01*
X162687000Y-98453000D02*
X162710000Y-98430000D01*
X162687000Y-97782500D02*
X162687000Y-98407000D01*
X142621000Y-96901000D02*
X142710000Y-96812000D01*
X168402000Y-99441000D02*
X168275000Y-99314000D01*
X161798000Y-96901000D02*
X161805500Y-96901000D01*
X122710000Y-97000000D02*
X122710000Y-93430000D01*
X168402000Y-103886000D02*
X168402000Y-99441000D01*
%TO.N,/ROW2*%
X142710000Y-117564000D02*
X142710000Y-115930000D01*
X142748000Y-117602000D02*
X142710000Y-117564000D01*
X179354000Y-103386000D02*
X179354000Y-104308000D01*
X122809000Y-117348000D02*
X122710000Y-117249000D01*
X122710000Y-117249000D02*
X122710000Y-113430000D01*
X82677000Y-117729000D02*
X82677000Y-118397000D01*
X169418000Y-117094000D02*
X168783000Y-117729000D01*
X179354000Y-104308000D02*
X179324000Y-104338000D01*
X162687000Y-117729000D02*
X162687000Y-118407000D01*
X169418000Y-104338000D02*
X169418000Y-117094000D01*
X102710000Y-117381000D02*
X102710000Y-115930000D01*
X162687000Y-118407000D02*
X162710000Y-118430000D01*
X102616000Y-117475000D02*
X102710000Y-117381000D01*
X82677000Y-118397000D02*
X82710000Y-118430000D01*
%TO.N,/ROW3*%
X176530000Y-102108000D02*
X176784000Y-102362000D01*
X171450000Y-102179000D02*
X171450000Y-137287000D01*
X102743000Y-135128000D02*
X102743000Y-135897000D01*
X122682000Y-132842000D02*
X122809000Y-132969000D01*
X162687000Y-138407000D02*
X162710000Y-138430000D01*
X177090000Y-102362000D02*
X177191000Y-102261000D01*
X162687000Y-137795000D02*
X162687000Y-138407000D01*
X102743000Y-135897000D02*
X102710000Y-135930000D01*
X142621000Y-135509000D02*
X142621000Y-135841000D01*
X176784000Y-102362000D02*
X177090000Y-102362000D01*
X171450000Y-137287000D02*
X170942000Y-137795000D01*
X177191000Y-102261000D02*
X177829000Y-102261000D01*
X122809000Y-132969000D02*
X122809000Y-133331000D01*
X122809000Y-133331000D02*
X122710000Y-133430000D01*
X171379000Y-102108000D02*
X171450000Y-102179000D01*
X142621000Y-135841000D02*
X142710000Y-135930000D01*
%TO.N,/COL0*%
X79320000Y-67090000D02*
X79320000Y-87090000D01*
X79320000Y-87090000D02*
X79320000Y-107090000D01*
X180213000Y-98425000D02*
X180154000Y-98484000D01*
X180154000Y-98484000D02*
X180154000Y-99536000D01*
D58*
%TO.N,+5VUSB*%
X197104000Y-113792000D02*
X196342000Y-113792000D01*
X186944000Y-135890000D02*
X185544000Y-137290000D01*
X196342000Y-113792000D02*
X194688000Y-112138000D01*
X197779000Y-114467000D02*
X197104000Y-113792000D01*
X197104000Y-113792000D02*
X197231000Y-113665000D01*
X185544000Y-137290000D02*
X185544000Y-137815000D01*
X192057000Y-109220000D02*
X191389000Y-108552000D01*
X186944000Y-135382000D02*
X186944000Y-135890000D01*
X181925000Y-128746000D02*
X181925000Y-128717000D01*
X178054000Y-109728000D02*
X178816000Y-110490000D01*
X181925000Y-127061000D02*
X180594000Y-125730000D01*
X197231000Y-113665000D02*
X197231000Y-112395000D01*
X194688000Y-112138000D02*
X194688000Y-109350000D01*
X181726000Y-128945000D02*
X181726000Y-134482000D01*
X175112000Y-125730000D02*
X174760000Y-125378000D01*
X193203000Y-109220000D02*
X192057000Y-109220000D01*
X186944000Y-133856000D02*
X186974000Y-133826000D01*
X181925000Y-128746000D02*
X181925000Y-127061000D01*
X175768000Y-125730000D02*
X175112000Y-125730000D01*
X181726000Y-134482000D02*
X182626000Y-135382000D01*
X194688000Y-109350000D02*
X195580000Y-108458000D01*
X186944000Y-135382000D02*
X186944000Y-133856000D01*
X178054000Y-109474000D02*
X178054000Y-109728000D01*
X181925000Y-128717000D02*
X183388000Y-127254000D01*
X181925000Y-128746000D02*
X181726000Y-128945000D01*
X197779000Y-125984000D02*
X197779000Y-114467000D01*
%TO.N,/VBAT*%
X176358000Y-105405545D02*
X176358000Y-105816000D01*
X180340000Y-113284000D02*
X179578000Y-112522000D01*
X173228000Y-110473000D02*
X173228000Y-118110000D01*
X181610000Y-107696000D02*
X182466000Y-108552000D01*
X182466000Y-108552000D02*
X183089000Y-108552000D01*
X179578000Y-110460500D02*
X179802500Y-110236000D01*
X173624000Y-108486000D02*
X173624000Y-106568000D01*
X173624000Y-108486000D02*
X173624000Y-110077000D01*
X179802500Y-110236000D02*
X179802500Y-105277877D01*
X173624000Y-110077000D02*
X174244000Y-110697000D01*
X176784000Y-103632000D02*
X176784000Y-104979545D01*
X176358000Y-105816000D02*
X178968000Y-108426000D01*
X178968000Y-108426000D02*
X178968000Y-107290000D01*
X178002999Y-119426001D02*
X177703000Y-119726000D01*
X179578000Y-112522000D02*
X179578000Y-110460500D01*
X174244000Y-110697000D02*
X175768000Y-110697000D01*
X176002000Y-106172000D02*
X176358000Y-105816000D01*
X176784000Y-104979545D02*
X176358000Y-105405545D01*
X178968000Y-107290000D02*
X179070000Y-107188000D01*
X181356000Y-115316000D02*
X180340000Y-114300000D01*
X173624000Y-110077000D02*
X173228000Y-110473000D01*
X180978500Y-120364000D02*
X180040501Y-119426001D01*
X179802500Y-105277877D02*
X179674622Y-105149999D01*
X184180000Y-120260500D02*
X182656000Y-120260500D01*
X180594000Y-119126000D02*
X181356000Y-119888000D01*
X181356000Y-119888000D02*
X181356000Y-119986500D01*
X182656000Y-120260500D02*
X181356000Y-118960500D01*
X181356000Y-119986500D02*
X180978500Y-120364000D01*
X175768000Y-106172000D02*
X176002000Y-106172000D01*
X173624000Y-106568000D02*
X173228000Y-106172000D01*
X180340000Y-114300000D02*
X180340000Y-113284000D01*
X180040501Y-119426001D02*
X178002999Y-119426001D01*
X181356000Y-118960500D02*
X181356000Y-115316000D01*
%TO.N,+3V3USB*%
X195880521Y-111425521D02*
X195580000Y-111125000D01*
X183642000Y-114634000D02*
X182706000Y-115570000D01*
X168910000Y-116078000D02*
X168910000Y-110998000D01*
X182402000Y-132101000D02*
X182549000Y-132101000D01*
X183642000Y-112915000D02*
X183642000Y-114634000D01*
X174498000Y-112776000D02*
X174244000Y-112522000D01*
X187452000Y-124206000D02*
X187452000Y-117014000D01*
X184150000Y-130353000D02*
X182402000Y-132101000D01*
X175006000Y-109728000D02*
X175006000Y-108568000D01*
X195880521Y-112729479D02*
X195880521Y-111425521D01*
X181864000Y-116332000D02*
X181944000Y-116332000D01*
X184150000Y-126238000D02*
X184150000Y-130353000D01*
X181894000Y-125378000D02*
X183290000Y-125378000D01*
X181894000Y-125378000D02*
X181894000Y-124938000D01*
X181944000Y-116332000D02*
X182706000Y-115570000D01*
X175006000Y-108568000D02*
X174924000Y-108486000D01*
X183290000Y-125378000D02*
X184150000Y-126238000D01*
X174498000Y-116332000D02*
X174498000Y-112776000D01*
X182549000Y-132101000D02*
X184274000Y-133826000D01*
X186008000Y-115570000D02*
X187452000Y-117014000D01*
X183089000Y-112362000D02*
X183642000Y-112915000D01*
X181894000Y-124938000D02*
X182626000Y-124206000D01*
%TO.N,+3V3*%
X190754000Y-120142000D02*
X190784000Y-120112000D01*
X176276000Y-104648000D02*
X175768000Y-105156000D01*
X175856500Y-131572000D02*
X175890500Y-131606000D01*
X180878000Y-131348000D02*
X180878000Y-132101000D01*
X190784000Y-120112000D02*
X190784000Y-117696000D01*
X177038000Y-101842834D02*
X177810834Y-101842834D01*
X177810834Y-101842834D02*
X177829000Y-101861000D01*
X175768000Y-104362000D02*
X175260000Y-103854000D01*
X180594000Y-129794000D02*
X180594000Y-131064000D01*
X180944000Y-123348000D02*
X180594000Y-123698000D01*
X172466000Y-123952000D02*
X172212000Y-124206000D01*
X172212000Y-124206000D02*
X172212000Y-128778000D01*
X185166000Y-123044000D02*
X184500000Y-122378000D01*
X172466000Y-105658000D02*
X172466000Y-99060000D01*
X190754000Y-120396000D02*
X190754000Y-120142000D01*
X172212000Y-128778000D02*
X172212000Y-131572000D01*
X176276000Y-103124000D02*
X176276000Y-104648000D01*
X172466000Y-123952000D02*
X172466000Y-105658000D01*
X185166000Y-123698000D02*
X185166000Y-123044000D01*
X172212000Y-128778000D02*
X172500000Y-129066000D01*
X180594000Y-131064000D02*
X180878000Y-131348000D01*
X172466000Y-105658000D02*
X172974000Y-105150000D01*
X175768000Y-105156000D02*
X175768000Y-104362000D01*
X184500000Y-121316000D02*
X185420000Y-120396000D01*
X186532000Y-97186000D02*
X186532000Y-93488000D01*
X180944000Y-122378000D02*
X180944000Y-123348000D01*
X184500000Y-122378000D02*
X184500000Y-121316000D01*
X174752000Y-131572000D02*
X175856500Y-131572000D01*
X172500000Y-129066000D02*
X173502500Y-129066000D01*
%TO.N,/D+*%
X180128999Y-103411001D02*
X180154000Y-103386000D01*
X192262622Y-113561297D02*
X191961622Y-113862297D01*
X191937300Y-114250933D02*
X191937300Y-113886619D01*
X191212300Y-126646749D02*
X191937300Y-125921749D01*
X193162300Y-123250933D02*
X193162300Y-123050933D01*
X192562300Y-115425933D02*
X192987300Y-115425933D01*
X192562300Y-121425933D02*
X192987300Y-121425933D01*
X192987300Y-116875933D02*
X192562300Y-116875933D01*
X192987300Y-122875933D02*
X192562300Y-122875933D01*
X191937300Y-122250933D02*
X191937300Y-122050933D01*
X191937300Y-118250933D02*
X191937300Y-118050933D01*
X191937300Y-116250933D02*
X191937300Y-116050933D01*
X193162300Y-115250933D02*
X193162300Y-115050933D01*
X192262622Y-113561297D02*
X192889703Y-113561297D01*
X192987300Y-114875933D02*
X192562300Y-114875933D01*
X193162300Y-121250933D02*
X193162300Y-121050933D01*
X192987300Y-120875933D02*
X192562300Y-120875933D01*
X193162300Y-119250933D02*
X193162300Y-119050933D01*
X191937300Y-125921749D02*
X191937300Y-124050933D01*
X192562300Y-119425933D02*
X192987300Y-119425933D01*
X180128999Y-105517197D02*
X180128999Y-103411001D01*
X193628000Y-112823000D02*
X193628000Y-108411000D01*
X192889703Y-113561297D02*
X193628000Y-112823000D01*
X193628000Y-108411000D02*
X192884000Y-107667000D01*
X192562300Y-123425933D02*
X192987300Y-123425933D01*
X182278802Y-107667000D02*
X180128999Y-105517197D01*
X191937300Y-113886619D02*
X192262622Y-113561297D01*
X192884000Y-107667000D02*
X182278802Y-107667000D01*
X193162300Y-117250933D02*
X193162300Y-117050933D01*
X191212300Y-127640500D02*
X191212300Y-126646749D01*
X191937300Y-120250933D02*
X191937300Y-120050933D01*
X192562300Y-117425933D02*
X192987300Y-117425933D01*
X192987300Y-118875933D02*
X192562300Y-118875933D01*
X192987300Y-117425933D02*
G75*
G03*
X193162333Y-117250933I0J175033D01*
G01*
X192562300Y-122875933D02*
G75*
G02*
X191937267Y-122250933I0J625033D01*
G01*
X192562300Y-116875933D02*
G75*
G02*
X191937267Y-116250933I0J625033D01*
G01*
X192562300Y-114875933D02*
G75*
G02*
X191937267Y-114250933I0J625033D01*
G01*
X193162300Y-115050933D02*
G75*
G03*
X192987300Y-114875900I-175000J33D01*
G01*
X192562300Y-118875933D02*
G75*
G02*
X191937267Y-118250933I0J625033D01*
G01*
X192987300Y-119425933D02*
G75*
G03*
X193162333Y-119250933I0J175033D01*
G01*
X191937300Y-116050933D02*
G75*
G02*
X192562300Y-115425900I625000J33D01*
G01*
X192987300Y-121425933D02*
G75*
G03*
X193162333Y-121250933I0J175033D01*
G01*
X192987300Y-115425933D02*
G75*
G03*
X193162333Y-115250933I0J175033D01*
G01*
X192562300Y-120875933D02*
G75*
G02*
X191937267Y-120250933I0J625033D01*
G01*
X193162300Y-119050933D02*
G75*
G03*
X192987300Y-118875900I-175000J33D01*
G01*
X193162300Y-123050933D02*
G75*
G03*
X192987300Y-122875900I-175000J33D01*
G01*
X191937300Y-120050933D02*
G75*
G02*
X192562300Y-119425900I625000J33D01*
G01*
X193162300Y-121050933D02*
G75*
G03*
X192987300Y-120875900I-175000J33D01*
G01*
X191937300Y-118050933D02*
G75*
G02*
X192562300Y-117425900I625000J33D01*
G01*
X192987300Y-123425933D02*
G75*
G03*
X193162333Y-123250933I0J175033D01*
G01*
X191937300Y-122050933D02*
G75*
G02*
X192562300Y-121425900I625000J33D01*
G01*
X193162300Y-117050933D02*
G75*
G03*
X192987300Y-116875900I-175000J33D01*
G01*
X191937300Y-124050933D02*
G75*
G02*
X192562300Y-123425900I625000J33D01*
G01*
%TO.N,/D-*%
X192387300Y-116250933D02*
X192387300Y-116050933D01*
X192562300Y-121875933D02*
X192987300Y-121875933D01*
X193112300Y-127640500D02*
X193112300Y-126646749D01*
X192387300Y-113862297D02*
X193223703Y-113862297D01*
X193612300Y-123250933D02*
X193612300Y-123050933D01*
X192987300Y-116425933D02*
X192562300Y-116425933D01*
X192562300Y-117875933D02*
X192987300Y-117875933D01*
X192387300Y-120250933D02*
X192387300Y-120050933D01*
X182465198Y-107217000D02*
X180579001Y-105330803D01*
X180579001Y-103411001D02*
X180554000Y-103386000D01*
X193929000Y-108204000D02*
X192942000Y-107217000D01*
X192387300Y-114250933D02*
X192387300Y-113862297D01*
X192387300Y-125921749D02*
X192387300Y-124050933D01*
X193223703Y-113862297D02*
X193929000Y-113157000D01*
X193112300Y-126646749D02*
X192387300Y-125921749D01*
X180579001Y-105330803D02*
X180579001Y-103411001D01*
X192562300Y-123875933D02*
X192987300Y-123875933D01*
X193612300Y-115250933D02*
X193612300Y-115050933D01*
X192942000Y-107217000D02*
X182465198Y-107217000D01*
X193929000Y-113157000D02*
X193929000Y-108204000D01*
X192987300Y-122425933D02*
X192562300Y-122425933D01*
X193612300Y-117250933D02*
X193612300Y-117050933D01*
X192987300Y-114425933D02*
X192562300Y-114425933D01*
X192387300Y-122250933D02*
X192387300Y-122050933D01*
X192987300Y-118425933D02*
X192562300Y-118425933D01*
X193612300Y-119250933D02*
X193612300Y-119050933D01*
X192387300Y-118250933D02*
X192387300Y-118050933D01*
X193612300Y-121250933D02*
X193612300Y-121050933D01*
X192562300Y-115875933D02*
X192987300Y-115875933D01*
X192987300Y-120425933D02*
X192562300Y-120425933D01*
X192562300Y-119875933D02*
X192987300Y-119875933D01*
X192562300Y-120425933D02*
G75*
G02*
X192387267Y-120250933I0J175033D01*
G01*
X193612300Y-119050933D02*
G75*
G03*
X192987300Y-118425900I-625000J33D01*
G01*
X192387300Y-122050933D02*
G75*
G02*
X192562300Y-121875900I175000J33D01*
G01*
X192987300Y-117875933D02*
G75*
G03*
X193612333Y-117250933I0J625033D01*
G01*
X192562300Y-122425933D02*
G75*
G02*
X192387267Y-122250933I0J175033D01*
G01*
X193612300Y-115050933D02*
G75*
G03*
X192987300Y-114425900I-625000J33D01*
G01*
X192987300Y-115875933D02*
G75*
G03*
X193612333Y-115250933I0J625033D01*
G01*
X192387300Y-124050933D02*
G75*
G02*
X192562300Y-123875900I175000J33D01*
G01*
X192562300Y-118425933D02*
G75*
G02*
X192387267Y-118250933I0J175033D01*
G01*
X192387300Y-116050933D02*
G75*
G02*
X192562300Y-115875900I175000J33D01*
G01*
X192987300Y-119875933D02*
G75*
G03*
X193612333Y-119250933I0J625033D01*
G01*
X193612300Y-121050933D02*
G75*
G03*
X192987300Y-120425900I-625000J33D01*
G01*
X192987300Y-121875933D02*
G75*
G03*
X193612333Y-121250933I0J625033D01*
G01*
X192562300Y-116425933D02*
G75*
G02*
X192387267Y-116250933I0J175033D01*
G01*
X192562300Y-114425933D02*
G75*
G02*
X192387267Y-114250933I0J175033D01*
G01*
X193612300Y-123050933D02*
G75*
G03*
X192987300Y-122425900I-625000J33D01*
G01*
X193612300Y-117050933D02*
G75*
G03*
X192987300Y-116425900I-625000J33D01*
G01*
X192987300Y-123875933D02*
G75*
G03*
X193612333Y-123250933I0J625033D01*
G01*
X192387300Y-118050933D02*
G75*
G02*
X192562300Y-117875900I175000J33D01*
G01*
X192387300Y-120050933D02*
G75*
G02*
X192562300Y-119875900I175000J33D01*
G01*
%TO.N,/ED-*%
X193360000Y-135062000D02*
X193360000Y-133764000D01*
X193040000Y-135382000D02*
X193360000Y-135062000D01*
X193360000Y-132081802D02*
X192786000Y-131507802D01*
X192786000Y-131507802D02*
X192786000Y-130604300D01*
X192786000Y-130604300D02*
X193112300Y-130278000D01*
X192360000Y-134956000D02*
X192786000Y-135382000D01*
X193360000Y-133764000D02*
X193360000Y-132081802D01*
X193112300Y-130278000D02*
X193112300Y-129915500D01*
X192786000Y-135382000D02*
X193040000Y-135382000D01*
X192360000Y-133764000D02*
X192360000Y-134956000D01*
%TO.N,/ED+*%
X191770000Y-131170000D02*
X192860000Y-132260000D01*
X193802000Y-134620000D02*
X193802000Y-133822000D01*
X192860000Y-134546000D02*
X192786000Y-134620000D01*
X191212300Y-129915500D02*
X191212300Y-130278000D01*
X193802000Y-133822000D02*
X193860000Y-133764000D01*
X191770000Y-130835700D02*
X191770000Y-131170000D01*
X192860000Y-133764000D02*
X192860000Y-134546000D01*
X191212300Y-130278000D02*
X191770000Y-130835700D01*
X192860000Y-132260000D02*
X192860000Y-133764000D01*
%TO.N,+5VBAT*%
X176530000Y-134620000D02*
X177036000Y-134620000D01*
X175768000Y-127014000D02*
X175240000Y-127542000D01*
X178338000Y-125378000D02*
X178338000Y-127478000D01*
X180340000Y-127758000D02*
X180114000Y-127984000D01*
X180340000Y-127000000D02*
X180340000Y-127758000D01*
X180114000Y-127984000D02*
X180114000Y-134592000D01*
X177036000Y-134620000D02*
X177830000Y-133826000D01*
X180114000Y-134592000D02*
X180086000Y-134620000D01*
X175768000Y-126746000D02*
X175768000Y-127014000D01*
X178338000Y-127478000D02*
X178308000Y-127508000D01*
%TO.N,+5V*%
X171064000Y-123963000D02*
X171064000Y-119380000D01*
X160035000Y-137205000D02*
X162610000Y-134630000D01*
X101600000Y-74676000D02*
X101089000Y-74676000D01*
X120142000Y-117348000D02*
X120035000Y-117241000D01*
X80035000Y-118230000D02*
X80035000Y-116283255D01*
X80035000Y-98230000D02*
X80035000Y-96725255D01*
X81683255Y-74630000D02*
X82610000Y-74630000D01*
X120396000Y-96774000D02*
X120035000Y-96413000D01*
X140035000Y-95730000D02*
X140035000Y-94705000D01*
X80772000Y-76962000D02*
X80772000Y-77493000D01*
X101714255Y-112130000D02*
X102610000Y-112130000D01*
X140581000Y-75184000D02*
X140035000Y-75730000D01*
X161539000Y-96525000D02*
X160035000Y-98029000D01*
X140035000Y-114705000D02*
X142610000Y-112130000D01*
X160287000Y-77978000D02*
X160035000Y-78230000D01*
X80983000Y-97282000D02*
X80035000Y-98230000D01*
X120621000Y-72644000D02*
X120035000Y-73230000D01*
X120035000Y-113230000D02*
X120035000Y-111589255D01*
X100035000Y-117307000D02*
X100035000Y-115730000D01*
X140703000Y-136398000D02*
X140035000Y-135730000D01*
X170939000Y-77727000D02*
X170942000Y-77724000D01*
X100584000Y-117856000D02*
X100035000Y-117307000D01*
X100449000Y-136144000D02*
X100035000Y-135730000D01*
X80035000Y-116283255D02*
X81688255Y-114630000D01*
X80035000Y-96725255D02*
X82130255Y-94630000D01*
X170939000Y-96771000D02*
X170939000Y-77727000D01*
X172891000Y-100076000D02*
X172891000Y-99926000D01*
X121481255Y-69630000D02*
X122610000Y-69630000D01*
X100035000Y-113809255D02*
X101714255Y-112130000D01*
X141484000Y-72130000D02*
X142610000Y-72130000D01*
X160035000Y-97205000D02*
X162610000Y-94630000D01*
X141224000Y-96653000D02*
X140958000Y-96653000D01*
X120035000Y-96413000D02*
X120035000Y-93230000D01*
X178816000Y-96774000D02*
X178065000Y-97525000D01*
X173228000Y-124206000D02*
X173810000Y-123624000D01*
X160035000Y-118230000D02*
X160035000Y-117205000D01*
X81280000Y-118364000D02*
X80169000Y-118364000D01*
X80772000Y-77493000D02*
X80035000Y-78230000D01*
X120142000Y-117856000D02*
X120142000Y-117348000D01*
X170942000Y-99568000D02*
X170942000Y-96774000D01*
X80035000Y-76278255D02*
X81683255Y-74630000D01*
X100076000Y-95771000D02*
X100035000Y-95730000D01*
X140958000Y-96653000D02*
X140035000Y-95730000D01*
X178065000Y-97525000D02*
X177223500Y-97525000D01*
X101582255Y-72130000D02*
X102610000Y-72130000D01*
X100076000Y-97282000D02*
X100076000Y-95771000D01*
X120035000Y-73230000D02*
X120035000Y-71076255D01*
X100035000Y-95730000D02*
X100035000Y-94021000D01*
X100035000Y-133875255D02*
X101780255Y-132130000D01*
X120035000Y-93230000D02*
X120035000Y-91523255D01*
X160035000Y-138230000D02*
X160035000Y-137205000D01*
X100035000Y-135730000D02*
X100035000Y-133875255D01*
X80169000Y-118364000D02*
X80035000Y-118230000D01*
X121412000Y-72644000D02*
X120621000Y-72644000D01*
X160035000Y-77205000D02*
X162610000Y-74630000D01*
X120035000Y-131401255D02*
X121806255Y-129630000D01*
X169926000Y-138279255D02*
X169926000Y-138430000D01*
X121412000Y-133604000D02*
X120409000Y-133604000D01*
X141478000Y-136398000D02*
X140703000Y-136398000D01*
X121806255Y-129630000D02*
X122610000Y-129630000D01*
X101346000Y-136144000D02*
X100449000Y-136144000D01*
X100035000Y-94021000D02*
X101926000Y-92130000D01*
X101780255Y-132130000D02*
X102610000Y-132130000D01*
X121928255Y-89630000D02*
X122610000Y-89630000D01*
X80035000Y-78230000D02*
X80035000Y-76278255D01*
X120035000Y-117241000D02*
X120035000Y-113230000D01*
X82130255Y-94630000D02*
X82610000Y-94630000D01*
X100035000Y-75730000D02*
X100035000Y-73677255D01*
X81688255Y-114630000D02*
X82610000Y-114630000D01*
X101926000Y-92130000D02*
X102610000Y-92130000D01*
X161185000Y-119380000D02*
X160035000Y-118230000D01*
X100035000Y-115730000D02*
X100035000Y-113809255D01*
X140208000Y-118618000D02*
X140035000Y-118445000D01*
X140035000Y-134261255D02*
X142166255Y-132130000D01*
X173810000Y-123624000D02*
X173810000Y-122378000D01*
X120035000Y-133230000D02*
X120035000Y-131401255D01*
X120035000Y-71076255D02*
X121481255Y-69630000D01*
X142166255Y-132130000D02*
X142610000Y-132130000D01*
X170942000Y-96774000D02*
X170939000Y-96771000D01*
X161290000Y-119380000D02*
X161185000Y-119380000D01*
X162819000Y-96525000D02*
X161539000Y-96525000D01*
X160035000Y-117205000D02*
X162610000Y-114630000D01*
X101089000Y-74676000D02*
X100035000Y-75730000D01*
X140035000Y-115730000D02*
X140035000Y-114705000D01*
X171064000Y-102324745D02*
X170942000Y-102202745D01*
X140035000Y-94705000D02*
X142610000Y-92130000D01*
X161290000Y-138430000D02*
X160235000Y-138430000D01*
X120409000Y-133604000D02*
X120035000Y-133230000D01*
X170821000Y-124206000D02*
X170937000Y-124322000D01*
X172891000Y-99926000D02*
X173535000Y-99282000D01*
X170942000Y-102202745D02*
X170942000Y-99568000D01*
X170937000Y-124322000D02*
X170937000Y-137268255D01*
X100035000Y-73677255D02*
X101582255Y-72130000D01*
X177388000Y-122378000D02*
X177388000Y-124110000D01*
X141478000Y-75184000D02*
X140581000Y-75184000D01*
X160035000Y-78230000D02*
X160035000Y-77205000D01*
X120035000Y-91523255D02*
X121928255Y-89630000D01*
X161290000Y-77978000D02*
X160287000Y-77978000D01*
X140035000Y-73579000D02*
X141484000Y-72130000D01*
X140035000Y-75730000D02*
X140035000Y-73579000D01*
X177388000Y-124110000D02*
X177292000Y-124206000D01*
X170937000Y-137268255D02*
X169926000Y-138279255D01*
X81280000Y-97282000D02*
X80983000Y-97282000D01*
X140035000Y-135730000D02*
X140035000Y-134261255D01*
X160035000Y-98230000D02*
X160035000Y-97205000D01*
X121994255Y-109630000D02*
X122610000Y-109630000D01*
X170821000Y-124206000D02*
X171064000Y-123963000D01*
X140035000Y-118445000D02*
X140035000Y-115730000D01*
X160035000Y-98029000D02*
X160035000Y-98230000D01*
X120035000Y-111589255D02*
X121994255Y-109630000D01*
X163068000Y-96774000D02*
X162819000Y-96525000D01*
X171064000Y-119380000D02*
X171064000Y-102324745D01*
X160235000Y-138430000D02*
X160035000Y-138230000D01*
D57*
%TO.N,Net-(U102-VINTA)*%
X183205000Y-100606618D02*
X183205000Y-100733618D01*
X182417910Y-100665090D02*
X181683090Y-100665090D01*
X182499000Y-100584000D02*
X182417910Y-100665090D01*
X183261000Y-103963300D02*
X183896000Y-104598300D01*
X181683090Y-100665090D02*
X181679000Y-100661000D01*
X183261000Y-100789618D02*
X183261000Y-103963300D01*
X183205000Y-100733618D02*
X183261000Y-100789618D01*
%TO.N,Net-(U102-VDCID)*%
X173522500Y-100806000D02*
X174148500Y-100180000D01*
X175891500Y-100180000D02*
X176772500Y-101061000D01*
X173736000Y-100806000D02*
X173522500Y-100806000D01*
X174148500Y-100180000D02*
X175891500Y-100180000D01*
X175260000Y-102330000D02*
X173736000Y-100806000D01*
X176772500Y-101061000D02*
X177829000Y-101061000D01*
%TO.N,Net-(U102-VDCIA)*%
X180975000Y-99515000D02*
X180954000Y-99536000D01*
X184021600Y-100963600D02*
X184021600Y-101245500D01*
X180975000Y-98806000D02*
X180975000Y-99515000D01*
X183085620Y-99893000D02*
X183085620Y-100027620D01*
X183085620Y-100027620D02*
X184021600Y-100963600D01*
%TO.N,/Matrix/LEDDATA0*%
X177223500Y-94925000D02*
X175525000Y-94925000D01*
X175525000Y-94925000D02*
X175310000Y-94710000D01*
%TO.N,/Matrix/LEDDATA1*%
X177223500Y-96225000D02*
X175319000Y-96225000D01*
X175319000Y-96225000D02*
X175310000Y-96234000D01*
%TO.N,/Matrix/LEDDATA2*%
X176193000Y-96875000D02*
X177223500Y-96875000D01*
X175310000Y-97758000D02*
X176193000Y-96875000D01*
%TO.N,/Matrix/LEDDATA3*%
X176399000Y-94275000D02*
X175310000Y-93186000D01*
X177223500Y-94275000D02*
X176399000Y-94275000D01*
%TO.N,/LEDSEL0*%
X178080000Y-93625000D02*
X177223500Y-93625000D01*
X178181000Y-93726000D02*
X178080000Y-93625000D01*
X180467000Y-93726000D02*
X180554000Y-93813000D01*
X180554000Y-93813000D02*
X180554000Y-99536000D01*
X178308000Y-93726000D02*
X178181000Y-93726000D01*
%TO.N,/LEDDATA*%
X181888000Y-102870000D02*
X181679000Y-102661000D01*
X182499000Y-99949000D02*
X182880000Y-100330000D01*
X182880000Y-100330000D02*
X182880000Y-102488999D01*
X178435000Y-95631000D02*
X178379000Y-95575000D01*
X181483000Y-98425000D02*
X181483000Y-95631000D01*
X182498999Y-102870000D02*
X181888000Y-102870000D01*
X182880000Y-102488999D02*
X182498999Y-102870000D01*
X178379000Y-95575000D02*
X177223500Y-95575000D01*
X182245000Y-99187000D02*
X181483000Y-98425000D01*
X182499000Y-99924810D02*
X182499000Y-99949000D01*
%TO.N,/LEDSEL1*%
X177223500Y-92975000D02*
X178297000Y-92975000D01*
X184150000Y-92964000D02*
X184785000Y-93599000D01*
X182499000Y-102108000D02*
X182252000Y-101861000D01*
X182252000Y-101861000D02*
X181679000Y-101861000D01*
X178297000Y-92975000D02*
X178308000Y-92964000D01*
X184785000Y-93599000D02*
X184785000Y-102306000D01*
%TO.N,/LEDTOGGLE*%
X171704000Y-94742000D02*
X171958000Y-94488000D01*
X175290000Y-133156500D02*
X175890500Y-132556000D01*
X173704000Y-136112000D02*
X171704000Y-134112000D01*
X175290000Y-134146000D02*
X175290000Y-133156500D01*
X171704000Y-134112000D02*
X171704000Y-94742000D01*
X182077000Y-94275000D02*
X182948500Y-94275000D01*
X175036000Y-136112000D02*
X173704000Y-136112000D01*
X175036000Y-134400000D02*
X175290000Y-134146000D01*
X181864000Y-94488000D02*
X182077000Y-94275000D01*
X175890500Y-132556000D02*
X175350500Y-133096000D01*
X175036000Y-136112000D02*
X175036000Y-134400000D01*
%TO.N,Net-(U102-X32MI)*%
X182499000Y-101092000D02*
X181710000Y-101092000D01*
X186944000Y-104564000D02*
X186944000Y-103048100D01*
X186944000Y-103048100D02*
X187021600Y-102970500D01*
X181710000Y-101092000D02*
X181679000Y-101061000D01*
X187021600Y-102970500D02*
X188214000Y-101778100D01*
X188214000Y-101778100D02*
X188214000Y-101092000D01*
D58*
%TO.N,+3V3BAT*%
X184912000Y-130810000D02*
X185450000Y-130272000D01*
X178002000Y-105410000D02*
X178018000Y-105426000D01*
X176956000Y-105410000D02*
X178002000Y-105410000D01*
X185068000Y-125378000D02*
X184658000Y-124968000D01*
X185450000Y-125378000D02*
X185068000Y-125378000D01*
X176784000Y-105582000D02*
X176956000Y-105410000D01*
X185450000Y-130272000D02*
X185450000Y-125378000D01*
X178036000Y-136112000D02*
X177768000Y-136112000D01*
X169926000Y-124968000D02*
X169926000Y-105410000D01*
X187706000Y-136144000D02*
X187960000Y-135890000D01*
X177768000Y-136112000D02*
X177292000Y-135636000D01*
X187960000Y-135890000D02*
X187960000Y-131064000D01*
D57*
%TO.N,Net-(U102-X32MO)*%
X182499000Y-101617003D02*
X182342997Y-101461000D01*
X186309000Y-102183100D02*
X186309000Y-101981000D01*
X186145000Y-103593900D02*
X185521600Y-102970500D01*
X185521600Y-102970500D02*
X186309000Y-102183100D01*
X185544000Y-105664000D02*
X186145000Y-105063000D01*
X182342997Y-101461000D02*
X181679000Y-101461000D01*
X186145000Y-105063000D02*
X186145000Y-103593900D01*
%TO.N,Net-(C109-Pad1)*%
X189636400Y-128157000D02*
X189035400Y-128758000D01*
X189636400Y-127101600D02*
X189738000Y-127000000D01*
X194636000Y-127072000D02*
X194636000Y-128137500D01*
X189636400Y-128157000D02*
X189636400Y-127101600D01*
X186387000Y-128758000D02*
X186375000Y-128746000D01*
X194564000Y-127000000D02*
X194636000Y-127072000D01*
X189035400Y-128758000D02*
X186387000Y-128758000D01*
%TO.N,Net-(D102-A)*%
X175732000Y-129066000D02*
X176814000Y-127984000D01*
X175252500Y-129066000D02*
X175732000Y-129066000D01*
X173615500Y-130656000D02*
X175205500Y-129066000D01*
X175205500Y-129066000D02*
X175252500Y-129066000D01*
%TO.N,Net-(D103-A)*%
X187479500Y-115216500D02*
X187833000Y-115570000D01*
X187479500Y-113792000D02*
X187479500Y-115216500D01*
%TO.N,Net-(D103-K)*%
X185142500Y-113030000D02*
X184785000Y-113030000D01*
X183738810Y-110471810D02*
X183089000Y-109822000D01*
X185904500Y-113792000D02*
X185142500Y-113030000D01*
X184407448Y-110471810D02*
X183738810Y-110471810D01*
%TO.N,Net-(D104-A)*%
X184406000Y-115445000D02*
X184531000Y-115570000D01*
X184406000Y-113792000D02*
X184406000Y-115445000D01*
%TO.N,Net-(D104-K)*%
X181991000Y-111737000D02*
X182636000Y-111092000D01*
X182636000Y-111092000D02*
X183089000Y-111092000D01*
X182831000Y-113792000D02*
X182245000Y-113792000D01*
X182245000Y-113792000D02*
X182118000Y-113665000D01*
%TO.N,Net-(D105-K)*%
X179862000Y-118332000D02*
X179312000Y-118332000D01*
X176433000Y-115453000D02*
X176433000Y-114776000D01*
X179862000Y-117378000D02*
X179832000Y-117348000D01*
X182626000Y-118405500D02*
X182656000Y-118435500D01*
X182626000Y-117348000D02*
X182626000Y-118405500D01*
X179312000Y-118332000D02*
X176433000Y-115453000D01*
X179862000Y-118332000D02*
X179862000Y-117378000D01*
%TO.N,Net-(D106-A)*%
X180672000Y-112014000D02*
X180365500Y-112014000D01*
X181252500Y-113792000D02*
X180975000Y-113514500D01*
X180975000Y-113514500D02*
X180975000Y-112317000D01*
X180975000Y-112317000D02*
X180672000Y-112014000D01*
%TO.N,Net-(D206-A)*%
X85670000Y-96310000D02*
X83550000Y-98430000D01*
X85670000Y-84550000D02*
X85670000Y-96310000D01*
%TO.N,Net-(D207-A)*%
X105670000Y-82050000D02*
X105670000Y-93810000D01*
X105670000Y-93810000D02*
X103550000Y-95930000D01*
%TO.N,Net-(D208-A)*%
X125670000Y-91310000D02*
X123550000Y-93430000D01*
X125670000Y-79550000D02*
X125670000Y-91310000D01*
%TO.N,Net-(D209-A)*%
X145670000Y-82050000D02*
X145670000Y-93810000D01*
X145670000Y-93810000D02*
X143550000Y-95930000D01*
%TO.N,Net-(D210-A)*%
X165670000Y-96310000D02*
X165670000Y-84550000D01*
X163550000Y-98430000D02*
X165670000Y-96310000D01*
%TO.N,Net-(D216-A)*%
X105670000Y-133810000D02*
X103550000Y-135930000D01*
X105670000Y-122050000D02*
X105670000Y-133810000D01*
%TO.N,Net-(D217-A)*%
X125670000Y-119550000D02*
X125670000Y-131310000D01*
X125670000Y-131310000D02*
X123550000Y-133430000D01*
%TO.N,Net-(D218-A)*%
X145670000Y-133810000D02*
X143550000Y-135930000D01*
X145670000Y-122050000D02*
X145670000Y-133810000D01*
%TO.N,Net-(D219-A)*%
X165670000Y-124550000D02*
X165670000Y-136310000D01*
X165670000Y-136310000D02*
X163550000Y-138430000D01*
%TO.N,/TCK*%
X194627000Y-119062000D02*
X194183000Y-118618000D01*
X194183000Y-107061000D02*
X193929000Y-106807000D01*
X194183000Y-118618000D02*
X194183000Y-107061000D01*
X196626000Y-119062000D02*
X194627000Y-119062000D01*
X178569000Y-103401000D02*
X178554000Y-103386000D01*
X178569000Y-104909000D02*
X178569000Y-103401000D01*
X178816000Y-106553000D02*
X178816000Y-105156000D01*
X178816000Y-105156000D02*
X178569000Y-104909000D01*
%TO.N,/TIO*%
X196626000Y-117062000D02*
X194659000Y-117062000D01*
X194659000Y-117062000D02*
X194437000Y-116840000D01*
X179324000Y-105283000D02*
X178954000Y-104913000D01*
X194437000Y-116840000D02*
X194437000Y-106553000D01*
X194437000Y-106553000D02*
X194310000Y-106426000D01*
X178954000Y-104913000D02*
X178954000Y-103386000D01*
X179324000Y-106299000D02*
X179324000Y-105283000D01*
%TO.N,Net-(J103-Pin_1)*%
X187482000Y-96488000D02*
X188085000Y-95885000D01*
X188085000Y-95885000D02*
X191097000Y-95885000D01*
%TO.N,Net-(U102-VSW)*%
X175272500Y-100806000D02*
X175927500Y-101461000D01*
X175927500Y-101461000D02*
X177829000Y-101461000D01*
%TO.N,Net-(Q105-G)*%
X176530000Y-108964000D02*
X177068000Y-108426000D01*
X177068000Y-108426000D02*
X174468000Y-105826000D01*
X174468000Y-105826000D02*
X174274000Y-105826000D01*
X175768000Y-112522000D02*
X176530000Y-111760000D01*
X176530000Y-111760000D02*
X176530000Y-108964000D01*
%TO.N,Net-(USB101-CC2)*%
X196803500Y-129032000D02*
X197684000Y-129912500D01*
X195373611Y-129338123D02*
X195679734Y-129032000D01*
X195679734Y-129032000D02*
X196803500Y-129032000D01*
X195373611Y-130254389D02*
X195373611Y-129338123D01*
X194860000Y-130768000D02*
X195373611Y-130254389D01*
X194860000Y-133764000D02*
X194860000Y-130768000D01*
%TO.N,Net-(USB101-CC1)*%
X190627000Y-129667000D02*
X189992000Y-129032000D01*
X189024900Y-129032000D02*
X188112400Y-129944500D01*
X190627000Y-130429000D02*
X190627000Y-129667000D01*
X191860000Y-133764000D02*
X191860000Y-131662000D01*
X191860000Y-131662000D02*
X190627000Y-130429000D01*
X189992000Y-129032000D02*
X189024900Y-129032000D01*
%TO.N,Net-(U103-EN)*%
X185544000Y-132576001D02*
X186194001Y-131926000D01*
X185544000Y-135990000D02*
X185544000Y-132576001D01*
X186194001Y-131926000D02*
X186974000Y-131926000D01*
%TO.N,Net-(U104-FB)*%
X173615500Y-132556000D02*
X172688000Y-132556000D01*
X177038000Y-132334000D02*
X177497000Y-132334000D01*
X177830000Y-132001000D02*
X179354000Y-132001000D01*
X172688000Y-132556000D02*
X172466000Y-132334000D01*
X177497000Y-132334000D02*
X177830000Y-132001000D01*
%TO.N,Net-(U105-PROG)*%
X188976000Y-113792000D02*
X189865000Y-113792000D01*
X192814000Y-111092000D02*
X191389000Y-111092000D01*
X193167000Y-112649000D02*
X193167000Y-111445000D01*
X193167000Y-111445000D02*
X192814000Y-111092000D01*
%TO.N,Net-(U107A-+)*%
X176811502Y-112522000D02*
X177292000Y-112522000D01*
X175163000Y-114170502D02*
X176811502Y-112522000D01*
X175260000Y-116840000D02*
X175260000Y-114873000D01*
X184180000Y-117064000D02*
X184277000Y-116967000D01*
X175163000Y-114776000D02*
X175163000Y-114170502D01*
X175260000Y-114873000D02*
X175163000Y-114776000D01*
X184180000Y-118435500D02*
X184180000Y-117064000D01*
%TO.N,Net-(R114-Pad1)*%
X178687000Y-113792000D02*
X179427500Y-113792000D01*
X177703000Y-114776000D02*
X178687000Y-113792000D01*
%TO.N,Net-(AE101-A)*%
X182372000Y-99568000D02*
X183692400Y-99568000D01*
X183692400Y-99568000D02*
X184048000Y-99212400D01*
X181679000Y-100261000D02*
X182372000Y-99568000D01*
%TO.N,Net-(U107B--)*%
X175163000Y-119726000D02*
X176433000Y-119726000D01*
%TO.N,Net-(D251-DOUT)*%
X82007000Y-75530000D02*
X81661000Y-75184000D01*
X104775000Y-75057000D02*
X104775000Y-73395000D01*
X104775000Y-73395000D02*
X103510000Y-72130000D01*
X82610000Y-75530000D02*
X82007000Y-75530000D01*
%TO.N,Net-(D251-DIN)*%
X83510000Y-74630000D02*
X84963000Y-76083000D01*
X84963000Y-76083000D02*
X84963000Y-77724000D01*
X171704000Y-92929000D02*
X173485000Y-94710000D01*
X171704000Y-80518000D02*
X171704000Y-92929000D01*
%TO.N,Net-(D252-DOUT)*%
X124968000Y-70739000D02*
X123859000Y-69630000D01*
X123859000Y-69630000D02*
X123510000Y-69630000D01*
X101346000Y-72898000D02*
X102478000Y-72898000D01*
X102478000Y-72898000D02*
X102610000Y-73030000D01*
%TO.N,Net-(D253-DOUT)*%
X143637000Y-71374000D02*
X143637000Y-72003000D01*
X121965000Y-70530000D02*
X121539000Y-70104000D01*
X143637000Y-72003000D02*
X143510000Y-72130000D01*
X122610000Y-70530000D02*
X121965000Y-70530000D01*
%TO.N,Net-(D254-DOUT)*%
X142610000Y-73014000D02*
X142610000Y-73030000D01*
X141478000Y-72898000D02*
X142494000Y-72898000D01*
X163449000Y-73533000D02*
X163510000Y-73594000D01*
X163510000Y-73594000D02*
X163510000Y-74630000D01*
X142494000Y-72898000D02*
X142610000Y-73014000D01*
%TO.N,Net-(D256-DOUT)*%
X82584000Y-95504000D02*
X82610000Y-95530000D01*
X104322000Y-92130000D02*
X103510000Y-92130000D01*
X104521000Y-92329000D02*
X104322000Y-92130000D01*
X81788000Y-95504000D02*
X82584000Y-95504000D01*
%TO.N,Net-(D256-DIN)*%
X173453000Y-96266000D02*
X173485000Y-96234000D01*
X172339000Y-96266000D02*
X173453000Y-96266000D01*
X84089000Y-94630000D02*
X84455000Y-94996000D01*
X83510000Y-94630000D02*
X84089000Y-94630000D01*
%TO.N,Net-(D257-DOUT)*%
X124841000Y-89916000D02*
X124555000Y-89630000D01*
X124555000Y-89630000D02*
X123510000Y-89630000D01*
X101600000Y-93218000D02*
X102422000Y-93218000D01*
X102422000Y-93218000D02*
X102610000Y-93030000D01*
%TO.N,Net-(D258-DOUT)*%
X122534000Y-90530000D02*
X122610000Y-90530000D01*
X143510000Y-91313000D02*
X143510000Y-92130000D01*
X121666000Y-90424000D02*
X122428000Y-90424000D01*
X122428000Y-90424000D02*
X122534000Y-90530000D01*
%TO.N,Net-(D259-DOUT)*%
X142301000Y-93030000D02*
X141605000Y-93726000D01*
X164211000Y-93980000D02*
X164211000Y-94361000D01*
X164211000Y-94361000D02*
X163942000Y-94630000D01*
X142610000Y-93030000D02*
X142301000Y-93030000D01*
X163942000Y-94630000D02*
X163510000Y-94630000D01*
%TO.N,Net-(D261-DOUT)*%
X104394000Y-112395000D02*
X103775000Y-112395000D01*
X103775000Y-112395000D02*
X103510000Y-112130000D01*
X81280000Y-115570000D02*
X81320000Y-115530000D01*
X81320000Y-115530000D02*
X82610000Y-115530000D01*
%TO.N,Net-(D261-DIN)*%
X83510000Y-114630000D02*
X84252000Y-114630000D01*
X172422472Y-97758000D02*
X173485000Y-97758000D01*
X171958000Y-112578000D02*
X171958000Y-98222472D01*
X172029000Y-112649000D02*
X171958000Y-112578000D01*
X171958000Y-98222472D02*
X172422472Y-97758000D01*
X84252000Y-114630000D02*
X84328000Y-114554000D01*
%TO.N,Net-(D262-DOUT)*%
X102489000Y-113030000D02*
X102610000Y-113030000D01*
X124841000Y-110363000D02*
X124108000Y-109630000D01*
X101600000Y-112776000D02*
X102235000Y-112776000D01*
X124108000Y-109630000D02*
X123510000Y-109630000D01*
X102235000Y-112776000D02*
X102489000Y-113030000D01*
%TO.N,Net-(D263-DOUT)*%
X144642000Y-112130000D02*
X143510000Y-112130000D01*
X122214000Y-110530000D02*
X122610000Y-110530000D01*
X122174000Y-110490000D02*
X122214000Y-110530000D01*
X121666000Y-110490000D02*
X122174000Y-110490000D01*
X144653000Y-112141000D02*
X144642000Y-112130000D01*
%TO.N,Net-(D264-DOUT)*%
X142367000Y-113030000D02*
X141859000Y-113538000D01*
X163576000Y-113792000D02*
X163576000Y-114564000D01*
X163576000Y-114564000D02*
X163510000Y-114630000D01*
X142610000Y-113030000D02*
X142367000Y-113030000D01*
%TO.N,Net-(D266-DIN)*%
X104444000Y-132130000D02*
X104521000Y-132207000D01*
X173136000Y-92837000D02*
X173485000Y-93186000D01*
X170362000Y-132135000D02*
X170362000Y-92838000D01*
X103510000Y-132130000D02*
X104444000Y-132130000D01*
X170561000Y-132334000D02*
X170362000Y-132135000D01*
X170362000Y-92838000D02*
X170363000Y-92837000D01*
X172339000Y-92837000D02*
X173136000Y-92837000D01*
%TO.N,Net-(D266-DOUT)*%
X102610000Y-132963000D02*
X102610000Y-133030000D01*
X102489000Y-132842000D02*
X102610000Y-132963000D01*
X101600000Y-132842000D02*
X102489000Y-132842000D01*
X124804000Y-129630000D02*
X123510000Y-129630000D01*
X124841000Y-129667000D02*
X124804000Y-129630000D01*
%TO.N,Net-(D267-DOUT)*%
X121412000Y-130556000D02*
X122584000Y-130556000D01*
X144145000Y-131064000D02*
X143510000Y-131699000D01*
X143510000Y-131699000D02*
X143510000Y-132130000D01*
X122584000Y-130556000D02*
X122610000Y-130530000D01*
%TO.N,Net-(D268-DOUT)*%
X142610000Y-133030000D02*
X141798000Y-133030000D01*
X163449000Y-133731000D02*
X163449000Y-134569000D01*
X163449000Y-134569000D02*
X163510000Y-134630000D01*
X141798000Y-133030000D02*
X141351000Y-133477000D01*
%TO.N,Net-(D201-A)*%
X84718034Y-78430000D02*
X85670000Y-77478034D01*
X85670000Y-77478034D02*
X85670000Y-64550000D01*
X83550000Y-78430000D02*
X84718034Y-78430000D01*
%TO.N,Net-(D202-A)*%
X103550000Y-75930000D02*
X104363034Y-75930000D01*
X104363034Y-75930000D02*
X105670000Y-74623034D01*
X105670000Y-74623034D02*
X105670000Y-62050000D01*
%TO.N,Net-(D203-A)*%
X125670000Y-71310000D02*
X125670000Y-59550000D01*
X123550000Y-73430000D02*
X125670000Y-71310000D01*
%TO.N,Net-(D204-A)*%
X145670000Y-73810000D02*
X145670000Y-62050000D01*
X143550000Y-75930000D02*
X145670000Y-73810000D01*
%TO.N,Net-(D205-A)*%
X165670000Y-76310000D02*
X165670000Y-64550000D01*
X163550000Y-78430000D02*
X165670000Y-76310000D01*
%TO.N,Net-(D211-A)*%
X85670000Y-104550000D02*
X85670000Y-116310000D01*
X85670000Y-116310000D02*
X83550000Y-118430000D01*
%TO.N,Net-(D212-A)*%
X105670000Y-102050000D02*
X105670000Y-113810000D01*
X105670000Y-113810000D02*
X103550000Y-115930000D01*
%TO.N,Net-(D213-A)*%
X125670000Y-111310000D02*
X123550000Y-113430000D01*
X125670000Y-99550000D02*
X125670000Y-111310000D01*
%TO.N,Net-(D214-A)*%
X145670000Y-102050000D02*
X145670000Y-113810000D01*
X145670000Y-113810000D02*
X143550000Y-115930000D01*
%TO.N,Net-(D215-A)*%
X165670000Y-104550000D02*
X165670000Y-116310000D01*
X165670000Y-116310000D02*
X163550000Y-118430000D01*
%TO.N,/ROW0*%
X170689000Y-92457000D02*
X170688000Y-92456000D01*
X82804000Y-77343000D02*
X82804000Y-77790000D01*
X180954000Y-103386000D02*
X180954000Y-104754000D01*
X162687000Y-79375000D02*
X162687000Y-78453000D01*
X170689000Y-92972034D02*
X170689000Y-92457000D01*
X170688000Y-104775000D02*
X170563000Y-104650000D01*
X180954000Y-104754000D02*
X180975000Y-104775000D01*
X122710000Y-74521000D02*
X122710000Y-73430000D01*
X82710000Y-77884000D02*
X82710000Y-78430000D01*
X122682000Y-74549000D02*
X122710000Y-74521000D01*
X82804000Y-77790000D02*
X82710000Y-77884000D01*
X162687000Y-78453000D02*
X162710000Y-78430000D01*
X102743000Y-77216000D02*
X102710000Y-77183000D01*
X170563000Y-104650000D02*
X170563000Y-93098034D01*
X142748000Y-75968000D02*
X142710000Y-75930000D01*
X102710000Y-77183000D02*
X102710000Y-75930000D01*
X170688000Y-92456000D02*
X170688000Y-79629000D01*
X142748000Y-76835000D02*
X142748000Y-75968000D01*
X170688000Y-79629000D02*
X170561000Y-79502000D01*
X170563000Y-93098034D02*
X170689000Y-92972034D01*
%TO.N,/COL1*%
X99320000Y-84590000D02*
X99320000Y-64590000D01*
X177292000Y-98298000D02*
X177292000Y-98806000D01*
X99320000Y-104590000D02*
X99320000Y-84590000D01*
X177292000Y-98806000D02*
X177829000Y-99343000D01*
X177829000Y-99343000D02*
X177829000Y-100261000D01*
X99320000Y-124590000D02*
X99320000Y-104590000D01*
%TO.N,/COL2*%
X119320000Y-102090000D02*
X119320000Y-82090000D01*
X119320000Y-82090000D02*
X119320000Y-62090000D01*
X176784000Y-98298000D02*
X176784000Y-99891000D01*
X177554000Y-100661000D02*
X177829000Y-100661000D01*
X176784000Y-99891000D02*
X177554000Y-100661000D01*
X119320000Y-122090000D02*
X119320000Y-102090000D01*
%TO.N,/COL3*%
X139320000Y-84590000D02*
X139320000Y-104590000D01*
X176110225Y-101786000D02*
X176110225Y-102196225D01*
X176110225Y-102196225D02*
X176575000Y-102661000D01*
X176276000Y-99974000D02*
X177038000Y-100736000D01*
X176276000Y-98298000D02*
X176276000Y-99974000D01*
X176575000Y-102661000D02*
X177829000Y-102661000D01*
X139320000Y-104590000D02*
X139320000Y-124590000D01*
X139320000Y-64590000D02*
X139320000Y-84590000D01*
%TO.N,/COL4*%
X178562000Y-99528000D02*
X178554000Y-99536000D01*
X159320000Y-107090000D02*
X159320000Y-87090000D01*
X177800000Y-98298000D02*
X178562000Y-99060000D01*
X159320000Y-87090000D02*
X159320000Y-67090000D01*
X159320000Y-127090000D02*
X159320000Y-107090000D01*
X178562000Y-99060000D02*
X178562000Y-99528000D01*
%TD*%
M02*
