M48
; DRILL file {KiCad 9.0.3} date 2025-07-27T18:33:23+0200
; FORMAT={-:-/ absolute / metric / decimal}
; #@! TF.CreationDate,2025-07-27T18:33:23+02:00
; #@! TF.GenerationSoftware,Kicad,Pcbnew,9.0.3
; #@! TF.FileFunction,NonPlated,1,2,NPTH
FMAT,2
METRIC
; #@! TA.AperFunction,NonPlated,NPTH,ComponentDrill
T1C0.900
; #@! TA.AperFunction,NonPlated,NPTH,ComponentDrill
T2C1.750
; #@! TA.AperFunction,NonPlated,NPTH,ComponentDrill
T3C2.200
; #@! TA.AperFunction,NonPlated,NPTH,ComponentDrill
T4C4.000
%
G90
G05
T1
X175.786Y-137.872
X178.786Y-137.872
T2
X78.05Y-69.63
X78.05Y-89.63
X78.05Y-109.63
X88.21Y-69.63
X88.21Y-89.63
X88.21Y-109.63
X98.05Y-67.13
X98.05Y-87.13
X98.05Y-107.13
X98.05Y-127.13
X108.21Y-67.13
X108.21Y-87.13
X108.21Y-107.13
X108.21Y-127.13
X118.05Y-64.63
X118.05Y-84.63
X118.05Y-104.63
X118.05Y-124.63
X128.21Y-64.63
X128.21Y-84.63
X128.21Y-104.63
X128.21Y-124.63
X138.05Y-67.13
X138.05Y-87.13
X138.05Y-107.13
X138.05Y-127.13
X148.21Y-67.13
X148.21Y-87.13
X148.21Y-107.13
X148.21Y-127.13
X158.05Y-69.63
X158.05Y-89.63
X158.05Y-109.63
X158.05Y-129.63
X168.21Y-69.63
X168.21Y-89.63
X168.21Y-109.63
X168.21Y-129.63
T3
X90.2Y-122.142
X175.29Y-90.138
T4
X83.13Y-69.63
X83.13Y-89.63
X83.13Y-109.63
X103.13Y-67.13
X103.13Y-87.13
X103.13Y-107.13
X103.13Y-127.13
X123.13Y-64.63
X123.13Y-84.63
X123.13Y-104.63
X123.13Y-124.63
X143.13Y-67.13
X143.13Y-87.13
X143.13Y-107.13
X143.13Y-127.13
X163.13Y-69.63
X163.13Y-89.63
X163.13Y-109.63
X163.13Y-129.63
M30
