%TF.GenerationSoftware,KiCad,Pcbnew,9.0.3*%
%TF.CreationDate,2025-07-27T18:33:32+02:00*%
%TF.ProjectId,Tastatur,54617374-6174-4757-922e-6b696361645f,0*%
%TF.SameCoordinates,Original*%
%TF.FileFunction,Legend,Top*%
%TF.FilePolarity,Positive*%
%FSLAX46Y46*%
G04 Gerber Fmt 4.6, Leading zero omitted, Abs format (unit mm)*
G04 Created by KiCad (PCBNEW 9.0.3) date 2025-07-27 18:33:32*
%MOMM*%
%LPD*%
G01*
G04 APERTURE LIST*
%ADD10C,0.120000*%
%ADD11C,0.250000*%
G04 APERTURE END LIST*
D10*
%TO.C,SW207*%
X96030000Y-80030000D02*
X96030000Y-94230000D01*
X96030000Y-94230000D02*
X110230000Y-94230000D01*
X110230000Y-80030000D02*
X96030000Y-80030000D01*
X110230000Y-94230000D02*
X110230000Y-80030000D01*
%TO.C,D265*%
X162100000Y-114120000D02*
X162100000Y-114770000D01*
X162750000Y-114120000D02*
X162100000Y-114120000D01*
%TO.C,C206*%
X79026233Y-97720000D02*
X79318767Y-97720000D01*
X79026233Y-98740000D02*
X79318767Y-98740000D01*
%TO.C,Q107*%
X180314000Y-124638000D02*
X180314000Y-123178000D01*
X180314000Y-124638000D02*
X181244000Y-124638000D01*
X183474000Y-123838000D02*
X183474000Y-123038000D01*
X183474000Y-123838000D02*
X183474000Y-124638000D01*
X183474000Y-124638000D02*
X182544000Y-124638000D01*
X183834000Y-122778000D02*
X183504000Y-122538000D01*
X183834000Y-122298000D01*
X183834000Y-122778000D01*
G36*
X183834000Y-122778000D02*
G01*
X183504000Y-122538000D01*
X183834000Y-122298000D01*
X183834000Y-122778000D01*
G37*
D11*
%TO.C,USB101*%
X188610000Y-137534000D02*
X188610000Y-135544000D01*
X188610000Y-141114000D02*
X188610000Y-139494000D01*
X197610000Y-141114000D02*
X188610000Y-141114000D01*
X197680000Y-137534000D02*
X197680000Y-135544000D01*
X197680000Y-140964000D02*
X197680000Y-139494000D01*
D10*
%TO.C,SW221*%
X173836000Y-137472000D02*
X173836000Y-138262000D01*
X174436000Y-139272000D02*
X180136000Y-139272000D01*
X175686000Y-136422000D02*
X177386000Y-136422000D01*
X175886000Y-139272000D02*
X175886000Y-140562000D01*
X175886000Y-140562000D02*
X176086000Y-140772000D01*
X176086000Y-140772000D02*
X176986000Y-140772000D01*
X177186000Y-140562000D02*
X176986000Y-140772000D01*
X177186000Y-140562000D02*
X177186000Y-139272000D01*
X178686000Y-136422000D02*
X178886000Y-136422000D01*
X180736000Y-138262000D02*
X180736000Y-137472000D01*
%TO.C,C208*%
X119026233Y-92720000D02*
X119318767Y-92720000D01*
X119026233Y-93740000D02*
X119318767Y-93740000D01*
%TO.C,D213*%
X122270000Y-113030000D02*
X122270000Y-113830000D01*
X123630000Y-113030000D02*
X122270000Y-113030000D01*
X123630000Y-113830000D02*
X122270000Y-113830000D01*
%TO.C,Q103*%
X183870000Y-124638000D02*
X183870000Y-123178000D01*
X183870000Y-124638000D02*
X184800000Y-124638000D01*
X187030000Y-123838000D02*
X187030000Y-123038000D01*
X187030000Y-123838000D02*
X187030000Y-124638000D01*
X187030000Y-124638000D02*
X186100000Y-124638000D01*
X187390000Y-122778000D02*
X187060000Y-122538000D01*
X187390000Y-122298000D01*
X187390000Y-122778000D01*
G36*
X187390000Y-122778000D02*
G01*
X187060000Y-122538000D01*
X187390000Y-122298000D01*
X187390000Y-122778000D01*
G37*
%TO.C,D269*%
X162100000Y-134120000D02*
X162100000Y-134770000D01*
X162750000Y-134120000D02*
X162100000Y-134120000D01*
%TO.C,C219*%
X159026233Y-137720000D02*
X159318767Y-137720000D01*
X159026233Y-138740000D02*
X159318767Y-138740000D01*
%TO.C,D254*%
X142100000Y-71620000D02*
X142100000Y-72270000D01*
X142750000Y-71620000D02*
X142100000Y-71620000D01*
%TO.C,Y101*%
X184834000Y-103904000D02*
X184834000Y-106324000D01*
X184834000Y-106324000D02*
X187654000Y-106324000D01*
%TO.C,SW203*%
X116030000Y-57530000D02*
X116030000Y-71730000D01*
X116030000Y-71730000D02*
X130230000Y-71730000D01*
X130230000Y-57530000D02*
X116030000Y-57530000D01*
X130230000Y-71730000D02*
X130230000Y-57530000D01*
%TO.C,D262*%
X102100000Y-111620000D02*
X102100000Y-112270000D01*
X102750000Y-111620000D02*
X102100000Y-111620000D01*
%TO.C,C101*%
X183386000Y-105607067D02*
X183386000Y-105314533D01*
X184406000Y-105607067D02*
X184406000Y-105314533D01*
%TO.C,R201*%
X174652224Y-94187500D02*
X174142776Y-94187500D01*
X174652224Y-95232500D02*
X174142776Y-95232500D01*
%TO.C,D207*%
X102270000Y-95530000D02*
X102270000Y-96330000D01*
X103630000Y-95530000D02*
X102270000Y-95530000D01*
X103630000Y-96330000D02*
X102270000Y-96330000D01*
%TO.C,U102*%
X177604000Y-103611000D02*
X177604000Y-103061000D01*
X178154000Y-99311000D02*
X177379000Y-99311000D01*
X178154000Y-103611000D02*
X177604000Y-103611000D01*
X181354000Y-99311000D02*
X181904000Y-99311000D01*
X181354000Y-103611000D02*
X181904000Y-103611000D01*
X181904000Y-99311000D02*
X181904000Y-99861000D01*
X181904000Y-103611000D02*
X181904000Y-103061000D01*
%TO.C,D261*%
X82100000Y-114120000D02*
X82100000Y-114770000D01*
X82750000Y-114120000D02*
X82100000Y-114120000D01*
%TO.C,C207*%
X99026233Y-95220000D02*
X99318767Y-95220000D01*
X99026233Y-96240000D02*
X99318767Y-96240000D01*
%TO.C,D214*%
X142270000Y-115530000D02*
X142270000Y-116330000D01*
X143630000Y-115530000D02*
X142270000Y-115530000D01*
X143630000Y-116330000D02*
X142270000Y-116330000D01*
%TO.C,SW216*%
X96030000Y-120030000D02*
X96030000Y-134230000D01*
X96030000Y-134230000D02*
X110230000Y-134230000D01*
X110230000Y-120030000D02*
X96030000Y-120030000D01*
X110230000Y-134230000D02*
X110230000Y-120030000D01*
%TO.C,SW212*%
X96030000Y-100030000D02*
X96030000Y-114230000D01*
X96030000Y-114230000D02*
X110230000Y-114230000D01*
X110230000Y-100030000D02*
X96030000Y-100030000D01*
X110230000Y-114230000D02*
X110230000Y-100030000D01*
%TO.C,D255*%
X162100000Y-74120000D02*
X162100000Y-74770000D01*
X162750000Y-74120000D02*
X162100000Y-74120000D01*
%TO.C,D205*%
X162270000Y-78030000D02*
X162270000Y-78830000D01*
X163630000Y-78030000D02*
X162270000Y-78030000D01*
X163630000Y-78830000D02*
X162270000Y-78830000D01*
%TO.C,C201*%
X79026233Y-77720000D02*
X79318767Y-77720000D01*
X79026233Y-78740000D02*
X79318767Y-78740000D01*
%TO.C,C203*%
X119026233Y-72720000D02*
X119318767Y-72720000D01*
X119026233Y-73740000D02*
X119318767Y-73740000D01*
%TO.C,U107*%
X173238000Y-117251000D02*
X173238000Y-115301000D01*
X173238000Y-117251000D02*
X173238000Y-119201000D01*
X178358000Y-117251000D02*
X178358000Y-115301000D01*
X178358000Y-117251000D02*
X178358000Y-119201000D01*
X178593000Y-114791000D02*
X178263000Y-114551000D01*
X178593000Y-114311000D01*
X178593000Y-114791000D01*
G36*
X178593000Y-114791000D02*
G01*
X178263000Y-114551000D01*
X178593000Y-114311000D01*
X178593000Y-114791000D01*
G37*
%TO.C,R103*%
X185021500Y-137157224D02*
X185021500Y-136647776D01*
X186066500Y-137157224D02*
X186066500Y-136647776D01*
%TO.C,D106*%
X178093000Y-111279000D02*
X178093000Y-112749000D01*
X178093000Y-112749000D02*
X180378000Y-112749000D01*
X180378000Y-111279000D02*
X178093000Y-111279000D01*
%TO.C,TP101*%
X197931000Y-109855000D02*
G75*
G02*
X196531000Y-109855000I-700000J0D01*
G01*
X196531000Y-109855000D02*
G75*
G02*
X197931000Y-109855000I700000J0D01*
G01*
%TO.C,L101*%
X174226233Y-100296000D02*
X174568767Y-100296000D01*
X174226233Y-101316000D02*
X174568767Y-101316000D01*
%TO.C,D215*%
X162270000Y-118030000D02*
X162270000Y-118830000D01*
X163630000Y-118030000D02*
X162270000Y-118030000D01*
X163630000Y-118830000D02*
X162270000Y-118830000D01*
%TO.C,D263*%
X122100000Y-109120000D02*
X122100000Y-109770000D01*
X122750000Y-109120000D02*
X122100000Y-109120000D01*
%TO.C,C204*%
X139026233Y-75220000D02*
X139318767Y-75220000D01*
X139026233Y-76240000D02*
X139318767Y-76240000D01*
%TO.C,R109*%
X189633776Y-113269500D02*
X190143224Y-113269500D01*
X189633776Y-114314500D02*
X190143224Y-114314500D01*
%TO.C,R114*%
X180085276Y-113269500D02*
X180594724Y-113269500D01*
X180085276Y-114314500D02*
X180594724Y-114314500D01*
%TO.C,D217*%
X122270000Y-133030000D02*
X122270000Y-133830000D01*
X123630000Y-133030000D02*
X122270000Y-133030000D01*
X123630000Y-133830000D02*
X122270000Y-133830000D01*
%TO.C,R205*%
X174632224Y-133623500D02*
X174122776Y-133623500D01*
X174632224Y-134668500D02*
X174122776Y-134668500D01*
%TO.C,D251*%
X82100000Y-74120000D02*
X82100000Y-74770000D01*
X82750000Y-74120000D02*
X82100000Y-74120000D01*
%TO.C,C114*%
X180262267Y-119854000D02*
X179969733Y-119854000D01*
X180262267Y-120874000D02*
X179969733Y-120874000D01*
%TO.C,R106*%
X186665776Y-115047500D02*
X187175224Y-115047500D01*
X186665776Y-116092500D02*
X187175224Y-116092500D01*
%TO.C,C110*%
X181892000Y-132817233D02*
X181892000Y-133109767D01*
X182912000Y-132817233D02*
X182912000Y-133109767D01*
%TO.C,U101*%
X190602300Y-128778000D02*
X190602300Y-127978000D01*
X190602300Y-128778000D02*
X190602300Y-129578000D01*
X193722300Y-128778000D02*
X193722300Y-127978000D01*
X193722300Y-128778000D02*
X193722300Y-129578000D01*
X190652300Y-130078000D02*
X190322300Y-130318000D01*
X190322300Y-129838000D01*
X190652300Y-130078000D01*
G36*
X190652300Y-130078000D02*
G01*
X190322300Y-130318000D01*
X190322300Y-129838000D01*
X190652300Y-130078000D01*
G37*
%TO.C,R113*%
X176769500Y-111864224D02*
X176769500Y-111354776D01*
X177814500Y-111864224D02*
X177814500Y-111354776D01*
%TO.C,D103*%
X185207000Y-113057000D02*
X185207000Y-114527000D01*
X185207000Y-114527000D02*
X187492000Y-114527000D01*
X187492000Y-113057000D02*
X185207000Y-113057000D01*
%TO.C,J102*%
X194516000Y-124172000D02*
X194516000Y-125422000D01*
X194516000Y-125422000D02*
X195766000Y-125422000D01*
X194616000Y-123362000D02*
X194616000Y-123662000D01*
X194616000Y-123662000D02*
X194816000Y-123662000D01*
X194716000Y-123362000D02*
X194716000Y-123662000D01*
X194816000Y-115002000D02*
X194816000Y-125122000D01*
X194816000Y-122562000D02*
X195426000Y-122562000D01*
X194816000Y-123362000D02*
X194616000Y-123362000D01*
X194816000Y-125122000D02*
X199536000Y-125122000D01*
X195426000Y-115612000D02*
X195426000Y-117562000D01*
X195426000Y-117562000D02*
X194816000Y-117562000D01*
X195426000Y-122562000D02*
X195426000Y-124512000D01*
X195426000Y-124512000D02*
X198926000Y-124512000D01*
X196126000Y-115002000D02*
X196126000Y-115612000D01*
X196126000Y-125122000D02*
X196126000Y-124512000D01*
X197426000Y-115002000D02*
X197426000Y-115612000D01*
X197426000Y-125122000D02*
X197426000Y-124512000D01*
X198426000Y-117962000D02*
X198926000Y-117962000D01*
X198426000Y-118162000D02*
X198426000Y-117962000D01*
X198426000Y-119962000D02*
X198926000Y-119962000D01*
X198426000Y-120162000D02*
X198426000Y-119962000D01*
X198426000Y-121962000D02*
X198926000Y-121962000D01*
X198426000Y-122162000D02*
X198426000Y-121962000D01*
X198926000Y-115612000D02*
X195426000Y-115612000D01*
X198926000Y-118062000D02*
X198426000Y-118062000D01*
X198926000Y-118162000D02*
X198426000Y-118162000D01*
X198926000Y-120062000D02*
X198426000Y-120062000D01*
X198926000Y-120162000D02*
X198426000Y-120162000D01*
X198926000Y-122062000D02*
X198426000Y-122062000D01*
X198926000Y-122162000D02*
X198426000Y-122162000D01*
X198926000Y-124512000D02*
X198926000Y-115612000D01*
X199536000Y-115002000D02*
X194816000Y-115002000D01*
X199536000Y-125122000D02*
X199536000Y-115002000D01*
%TO.C,C106*%
X185011600Y-102254267D02*
X185011600Y-101961733D01*
X186031600Y-102254267D02*
X186031600Y-101961733D01*
%TO.C,L102*%
X174206233Y-128556000D02*
X174548767Y-128556000D01*
X174206233Y-129576000D02*
X174548767Y-129576000D01*
%TO.C,SW213*%
X116030000Y-97530000D02*
X116030000Y-111730000D01*
X116030000Y-111730000D02*
X130230000Y-111730000D01*
X130230000Y-97530000D02*
X116030000Y-97530000D01*
X130230000Y-111730000D02*
X130230000Y-97530000D01*
%TO.C,F101*%
X185536252Y-127036000D02*
X182763748Y-127036000D01*
X185536252Y-130456000D02*
X182763748Y-130456000D01*
%TO.C,D260*%
X162100000Y-94120000D02*
X162100000Y-94770000D01*
X162750000Y-94120000D02*
X162100000Y-94120000D01*
%TO.C,U104*%
X174753000Y-130046000D02*
X173953000Y-130046000D01*
X174753000Y-130046000D02*
X175553000Y-130046000D01*
X174753000Y-133166000D02*
X173953000Y-133166000D01*
X174753000Y-133166000D02*
X175553000Y-133166000D01*
X173453000Y-130096000D02*
X173213000Y-129766000D01*
X173693000Y-129766000D01*
X173453000Y-130096000D01*
G36*
X173453000Y-130096000D02*
G01*
X173213000Y-129766000D01*
X173693000Y-129766000D01*
X173453000Y-130096000D01*
G37*
%TO.C,C209*%
X139026233Y-95220000D02*
X139318767Y-95220000D01*
X139026233Y-96240000D02*
X139318767Y-96240000D01*
%TO.C,R111*%
X183657500Y-119602724D02*
X183657500Y-119093276D01*
X184702500Y-119602724D02*
X184702500Y-119093276D01*
%TO.C,R108*%
X175245500Y-111864224D02*
X175245500Y-111354776D01*
X176290500Y-111864224D02*
X176290500Y-111354776D01*
%TO.C,R107*%
X183363776Y-115047500D02*
X183873224Y-115047500D01*
X183363776Y-116092500D02*
X183873224Y-116092500D01*
%TO.C,D252*%
X102100000Y-71620000D02*
X102100000Y-72270000D01*
X102750000Y-71620000D02*
X102100000Y-71620000D01*
%TO.C,U105*%
X187239000Y-107942000D02*
X184954000Y-107942000D01*
X187239000Y-107942000D02*
X189524000Y-107942000D01*
X187239000Y-112972000D02*
X184954000Y-112972000D01*
X187239000Y-112972000D02*
X189524000Y-112972000D01*
X193404000Y-112602000D02*
X193074000Y-112362000D01*
X193404000Y-112122000D01*
X193404000Y-112602000D01*
G36*
X193404000Y-112602000D02*
G01*
X193074000Y-112362000D01*
X193404000Y-112122000D01*
X193404000Y-112602000D01*
G37*
%TO.C,D204*%
X142270000Y-75530000D02*
X142270000Y-76330000D01*
X143630000Y-75530000D02*
X142270000Y-75530000D01*
X143630000Y-76330000D02*
X142270000Y-76330000D01*
%TO.C,R202*%
X174652224Y-95711500D02*
X174142776Y-95711500D01*
X174652224Y-96756500D02*
X174142776Y-96756500D01*
%TO.C,D257*%
X102100000Y-91620000D02*
X102100000Y-92270000D01*
X102750000Y-91620000D02*
X102100000Y-91620000D01*
%TO.C,C215*%
X159026233Y-117720000D02*
X159318767Y-117720000D01*
X159026233Y-118740000D02*
X159318767Y-118740000D01*
%TO.C,D264*%
X142100000Y-111620000D02*
X142100000Y-112270000D01*
X142750000Y-111620000D02*
X142100000Y-111620000D01*
%TO.C,C104*%
X174543767Y-103344000D02*
X174251233Y-103344000D01*
X174543767Y-104364000D02*
X174251233Y-104364000D01*
%TO.C,SW211*%
X76030000Y-102530000D02*
X76030000Y-116730000D01*
X76030000Y-116730000D02*
X90230000Y-116730000D01*
X90230000Y-102530000D02*
X76030000Y-102530000D01*
X90230000Y-116730000D02*
X90230000Y-102530000D01*
%TO.C,D211*%
X82270000Y-118030000D02*
X82270000Y-118830000D01*
X83630000Y-118030000D02*
X82270000Y-118030000D01*
X83630000Y-118830000D02*
X82270000Y-118830000D01*
%TO.C,D206*%
X82270000Y-98030000D02*
X82270000Y-98830000D01*
X83630000Y-98030000D02*
X82270000Y-98030000D01*
X83630000Y-98830000D02*
X82270000Y-98830000D01*
%TO.C,C212*%
X99026233Y-115220000D02*
X99318767Y-115220000D01*
X99026233Y-116240000D02*
X99318767Y-116240000D01*
%TO.C,D258*%
X122100000Y-89120000D02*
X122100000Y-89770000D01*
X122750000Y-89120000D02*
X122100000Y-89120000D01*
%TO.C,SW215*%
X156030000Y-102530000D02*
X156030000Y-116730000D01*
X156030000Y-116730000D02*
X170230000Y-116730000D01*
X170230000Y-102530000D02*
X156030000Y-102530000D01*
X170230000Y-116730000D02*
X170230000Y-102530000D01*
%TO.C,R112*%
X182133500Y-119602724D02*
X182133500Y-119093276D01*
X183178500Y-119602724D02*
X183178500Y-119093276D01*
%TO.C,C103*%
X183511600Y-102254267D02*
X183511600Y-101961733D01*
X184531600Y-102254267D02*
X184531600Y-101961733D01*
%TO.C,Q106*%
X173104000Y-106421000D02*
X173774000Y-106421000D01*
X173104000Y-107831000D02*
X173104000Y-106421000D01*
X174774000Y-106421000D02*
X175434000Y-106421000D01*
X175434000Y-107831000D02*
X175434000Y-106421000D01*
X173124000Y-108201000D02*
X172794000Y-108441000D01*
X172794000Y-107961000D01*
X173124000Y-108201000D01*
G36*
X173124000Y-108201000D02*
G01*
X172794000Y-108441000D01*
X172794000Y-107961000D01*
X173124000Y-108201000D01*
G37*
%TO.C,R101*%
X197161500Y-129254724D02*
X197161500Y-128745276D01*
X198206500Y-129254724D02*
X198206500Y-128745276D01*
%TO.C,D104*%
X182133500Y-113057000D02*
X182133500Y-114527000D01*
X182133500Y-114527000D02*
X184418500Y-114527000D01*
X184418500Y-113057000D02*
X182133500Y-113057000D01*
%TO.C,C216*%
X99026233Y-135220000D02*
X99318767Y-135220000D01*
X99026233Y-136240000D02*
X99318767Y-136240000D01*
%TO.C,D216*%
X102270000Y-135530000D02*
X102270000Y-136330000D01*
X103630000Y-135530000D02*
X102270000Y-135530000D01*
X103630000Y-136330000D02*
X102270000Y-136330000D01*
%TO.C,D218*%
X142270000Y-135530000D02*
X142270000Y-136330000D01*
X143630000Y-135530000D02*
X142270000Y-135530000D01*
X143630000Y-136330000D02*
X142270000Y-136330000D01*
%TO.C,D209*%
X142270000Y-95530000D02*
X142270000Y-96330000D01*
X143630000Y-95530000D02*
X142270000Y-95530000D01*
X143630000Y-96330000D02*
X142270000Y-96330000D01*
%TO.C,J103*%
X189137000Y-98195000D02*
X189137000Y-101935000D01*
X207557000Y-91625000D02*
X193247000Y-91625000D01*
X207557000Y-91625000D02*
X207557000Y-107345000D01*
X207557000Y-107345000D02*
X193247000Y-107345000D01*
X189724042Y-93618194D02*
G75*
G02*
X193247000Y-91625000I3522957J-2116805D01*
G01*
X193247000Y-107345000D02*
G75*
G02*
X189316587Y-104436648I0J4110000D01*
G01*
%TO.C,C214*%
X139026233Y-115220000D02*
X139318767Y-115220000D01*
X139026233Y-116240000D02*
X139318767Y-116240000D01*
%TO.C,C108*%
X174231233Y-127032000D02*
X174523767Y-127032000D01*
X174231233Y-128052000D02*
X174523767Y-128052000D01*
%TO.C,C211*%
X79026233Y-117720000D02*
X79318767Y-117720000D01*
X79026233Y-118740000D02*
X79318767Y-118740000D01*
%TO.C,SW209*%
X136030000Y-80030000D02*
X136030000Y-94230000D01*
X136030000Y-94230000D02*
X150230000Y-94230000D01*
X150230000Y-80030000D02*
X136030000Y-80030000D01*
X150230000Y-94230000D02*
X150230000Y-80030000D01*
%TO.C,D201*%
X82270000Y-78030000D02*
X82270000Y-78830000D01*
X83630000Y-78030000D02*
X82270000Y-78030000D01*
X83630000Y-78830000D02*
X82270000Y-78830000D01*
%TO.C,D212*%
X102270000Y-115530000D02*
X102270000Y-116330000D01*
X103630000Y-115530000D02*
X102270000Y-115530000D01*
X103630000Y-116330000D02*
X102270000Y-116330000D01*
%TO.C,D268*%
X142100000Y-131620000D02*
X142100000Y-132270000D01*
X142750000Y-131620000D02*
X142100000Y-131620000D01*
%TO.C,D208*%
X122270000Y-93030000D02*
X122270000Y-93830000D01*
X123630000Y-93030000D02*
X122270000Y-93030000D01*
X123630000Y-93830000D02*
X122270000Y-93830000D01*
%TO.C,C111*%
X179824767Y-109980000D02*
X179532233Y-109980000D01*
X179824767Y-111000000D02*
X179532233Y-111000000D01*
%TO.C,SW204*%
X136030000Y-60030000D02*
X136030000Y-74230000D01*
X136030000Y-74230000D02*
X150230000Y-74230000D01*
X150230000Y-60030000D02*
X136030000Y-60030000D01*
X150230000Y-74230000D02*
X150230000Y-60030000D01*
%TO.C,TP104*%
X196280000Y-111125000D02*
G75*
G02*
X194880000Y-111125000I-700000J0D01*
G01*
X194880000Y-111125000D02*
G75*
G02*
X196280000Y-111125000I700000J0D01*
G01*
%TO.C,C113*%
X174251233Y-98772000D02*
X174543767Y-98772000D01*
X174251233Y-99792000D02*
X174543767Y-99792000D01*
%TO.C,R110*%
X173721500Y-111354776D02*
X173721500Y-111864224D01*
X174766500Y-111354776D02*
X174766500Y-111864224D01*
%TO.C,C217*%
X119026233Y-132720000D02*
X119318767Y-132720000D01*
X119026233Y-133740000D02*
X119318767Y-133740000D01*
%TO.C,D266*%
X102100000Y-131620000D02*
X102100000Y-132270000D01*
X102750000Y-131620000D02*
X102100000Y-131620000D01*
%TO.C,C210*%
X159026233Y-97720000D02*
X159318767Y-97720000D01*
X159026233Y-98740000D02*
X159318767Y-98740000D01*
%TO.C,SW210*%
X156030000Y-82530000D02*
X156030000Y-96730000D01*
X156030000Y-96730000D02*
X170230000Y-96730000D01*
X170230000Y-82530000D02*
X156030000Y-82530000D01*
X170230000Y-96730000D02*
X170230000Y-82530000D01*
%TO.C,D202*%
X102270000Y-75530000D02*
X102270000Y-76330000D01*
X103630000Y-75530000D02*
X102270000Y-75530000D01*
X103630000Y-76330000D02*
X102270000Y-76330000D01*
%TO.C,C109*%
X194126000Y-128853733D02*
X194126000Y-129146267D01*
X195146000Y-128853733D02*
X195146000Y-129146267D01*
%TO.C,L103*%
X189126400Y-129203267D02*
X189126400Y-128860733D01*
X190146400Y-129203267D02*
X190146400Y-128860733D01*
%TO.C,D105*%
X178862000Y-119142000D02*
X178862000Y-115282000D01*
X178862000Y-119142000D02*
X180862000Y-119142000D01*
X180862000Y-119142000D02*
X180862000Y-115282000D01*
%TO.C,C213*%
X119026233Y-112720000D02*
X119318767Y-112720000D01*
X119026233Y-113740000D02*
X119318767Y-113740000D01*
%TO.C,D101*%
X195425000Y-127340000D02*
X195425000Y-129800000D01*
X196895000Y-127340000D02*
X195425000Y-127340000D01*
X196895000Y-129800000D02*
X196895000Y-127340000D01*
%TO.C,C202*%
X99026233Y-75220000D02*
X99318767Y-75220000D01*
X99026233Y-76240000D02*
X99318767Y-76240000D01*
%TO.C,D259*%
X142100000Y-91620000D02*
X142100000Y-92270000D01*
X142750000Y-91620000D02*
X142100000Y-91620000D01*
%TO.C,R102*%
X187589900Y-129286724D02*
X187589900Y-128777276D01*
X188634900Y-129286724D02*
X188634900Y-128777276D01*
%TO.C,C205*%
X159026233Y-77720000D02*
X159318767Y-77720000D01*
X159026233Y-78740000D02*
X159318767Y-78740000D01*
%TO.C,SW206*%
X76030000Y-82530000D02*
X76030000Y-96730000D01*
X76030000Y-96730000D02*
X90230000Y-96730000D01*
X90230000Y-82530000D02*
X76030000Y-82530000D01*
X90230000Y-96730000D02*
X90230000Y-82530000D01*
%TO.C,Q101*%
X176758000Y-124638000D02*
X176758000Y-123178000D01*
X176758000Y-124638000D02*
X177688000Y-124638000D01*
X179918000Y-123838000D02*
X179918000Y-123038000D01*
X179918000Y-123838000D02*
X179918000Y-124638000D01*
X179918000Y-124638000D02*
X178988000Y-124638000D01*
X180278000Y-122778000D02*
X179948000Y-122538000D01*
X180278000Y-122298000D01*
X180278000Y-122778000D01*
G36*
X180278000Y-122778000D02*
G01*
X179948000Y-122538000D01*
X180278000Y-122298000D01*
X180278000Y-122778000D01*
G37*
%TO.C,C218*%
X139026233Y-135220000D02*
X139318767Y-135220000D01*
X139026233Y-136240000D02*
X139318767Y-136240000D01*
%TO.C,AE101*%
X184787758Y-98302400D02*
X186458242Y-98302400D01*
X184787758Y-100122400D02*
X186458242Y-100122400D01*
%TO.C,SW202*%
X96030000Y-60030000D02*
X96030000Y-74230000D01*
X96030000Y-74230000D02*
X110230000Y-74230000D01*
X110230000Y-60030000D02*
X96030000Y-60030000D01*
X110230000Y-74230000D02*
X110230000Y-60030000D01*
%TO.C,SW218*%
X136030000Y-120030000D02*
X136030000Y-134230000D01*
X136030000Y-134230000D02*
X150230000Y-134230000D01*
X150230000Y-120030000D02*
X136030000Y-120030000D01*
X150230000Y-134230000D02*
X150230000Y-120030000D01*
%TO.C,SW205*%
X156030000Y-62530000D02*
X156030000Y-76730000D01*
X156030000Y-76730000D02*
X170230000Y-76730000D01*
X170230000Y-62530000D02*
X156030000Y-62530000D01*
X170230000Y-76730000D02*
X170230000Y-62530000D01*
%TO.C,D203*%
X122270000Y-73030000D02*
X122270000Y-73830000D01*
X123630000Y-73030000D02*
X122270000Y-73030000D01*
X123630000Y-73830000D02*
X122270000Y-73830000D01*
%TO.C,D102*%
X180824000Y-126984000D02*
X176814000Y-126984000D01*
X180824000Y-128984000D02*
X176814000Y-128984000D01*
X180824000Y-128984000D02*
X180824000Y-126984000D01*
%TO.C,SW208*%
X116030000Y-77530000D02*
X116030000Y-91730000D01*
X116030000Y-91730000D02*
X130230000Y-91730000D01*
X130230000Y-77530000D02*
X116030000Y-77530000D01*
X130230000Y-91730000D02*
X130230000Y-77530000D01*
%TO.C,SW214*%
X136030000Y-100030000D02*
X136030000Y-114230000D01*
X136030000Y-114230000D02*
X150230000Y-114230000D01*
X150230000Y-100030000D02*
X136030000Y-100030000D01*
X150230000Y-114230000D02*
X150230000Y-100030000D01*
%TO.C,C102*%
X174543767Y-101820000D02*
X174251233Y-101820000D01*
X174543767Y-102840000D02*
X174251233Y-102840000D01*
%TO.C,SW201*%
X76030000Y-62530000D02*
X76030000Y-76730000D01*
X76030000Y-76730000D02*
X90230000Y-76730000D01*
X90230000Y-62530000D02*
X76030000Y-62530000D01*
X90230000Y-76730000D02*
X90230000Y-62530000D01*
%TO.C,R105*%
X178831500Y-132658776D02*
X178831500Y-133168224D01*
X179876500Y-132658776D02*
X179876500Y-133168224D01*
%TO.C,Q104*%
X184952000Y-94228000D02*
X185882000Y-94228000D01*
X184952000Y-95028000D02*
X184952000Y-94228000D01*
X184952000Y-95028000D02*
X184952000Y-95828000D01*
X188112000Y-94228000D02*
X187182000Y-94228000D01*
X188112000Y-94228000D02*
X188112000Y-95688000D01*
X184922000Y-96328000D02*
X184592000Y-96568000D01*
X184592000Y-96088000D01*
X184922000Y-96328000D01*
G36*
X184922000Y-96328000D02*
G01*
X184592000Y-96568000D01*
X184592000Y-96088000D01*
X184922000Y-96328000D01*
G37*
%TO.C,D210*%
X162270000Y-98030000D02*
X162270000Y-98830000D01*
X163630000Y-98030000D02*
X162270000Y-98030000D01*
X163630000Y-98830000D02*
X162270000Y-98830000D01*
%TO.C,D256*%
X82100000Y-94120000D02*
X82100000Y-94770000D01*
X82750000Y-94120000D02*
X82100000Y-94120000D01*
%TO.C,TP103*%
X197931000Y-112395000D02*
G75*
G02*
X196531000Y-112395000I-700000J0D01*
G01*
X196531000Y-112395000D02*
G75*
G02*
X197931000Y-112395000I700000J0D01*
G01*
%TO.C,SW217*%
X116030000Y-117530000D02*
X116030000Y-131730000D01*
X116030000Y-131730000D02*
X130230000Y-131730000D01*
X130230000Y-117530000D02*
X116030000Y-117530000D01*
X130230000Y-131730000D02*
X130230000Y-117530000D01*
%TO.C,Q102*%
X173180000Y-124638000D02*
X173180000Y-123178000D01*
X173180000Y-124638000D02*
X174110000Y-124638000D01*
X176340000Y-123838000D02*
X176340000Y-123038000D01*
X176340000Y-123838000D02*
X176340000Y-124638000D01*
X176340000Y-124638000D02*
X175410000Y-124638000D01*
X176700000Y-122778000D02*
X176370000Y-122538000D01*
X176700000Y-122298000D01*
X176700000Y-122778000D01*
G36*
X176700000Y-122778000D02*
G01*
X176370000Y-122538000D01*
X176700000Y-122298000D01*
X176700000Y-122778000D01*
G37*
%TO.C,D267*%
X122100000Y-129120000D02*
X122100000Y-129770000D01*
X122750000Y-129120000D02*
X122100000Y-129120000D01*
%TO.C,U103*%
X185524000Y-134486000D02*
X184724000Y-134486000D01*
X185524000Y-134486000D02*
X186324000Y-134486000D01*
X186524000Y-131266000D02*
X184724000Y-131266000D01*
X187064000Y-134766000D02*
X186584000Y-134766000D01*
X186824000Y-134436000D01*
X187064000Y-134766000D01*
G36*
X187064000Y-134766000D02*
G01*
X186584000Y-134766000D01*
X186824000Y-134436000D01*
X187064000Y-134766000D01*
G37*
%TO.C,C112*%
X187374000Y-118050437D02*
X187374000Y-123806000D01*
X187374000Y-123806000D02*
X189724000Y-123806000D01*
X188438437Y-116986000D02*
X187374000Y-118050437D01*
X188438437Y-116986000D02*
X189724000Y-116986000D01*
X192631500Y-115958500D02*
X192631500Y-116746000D01*
X193025250Y-116352250D02*
X192237750Y-116352250D01*
X193129563Y-116986000D02*
X191844000Y-116986000D01*
X193129563Y-116986000D02*
X194194000Y-118050437D01*
X194194000Y-118050437D02*
X194194000Y-123806000D01*
X194194000Y-123806000D02*
X191844000Y-123806000D01*
%TO.C,R203*%
X174652224Y-97235500D02*
X174142776Y-97235500D01*
X174652224Y-98280500D02*
X174142776Y-98280500D01*
%TO.C,R204*%
X174652224Y-92663500D02*
X174142776Y-92663500D01*
X174652224Y-93708500D02*
X174142776Y-93708500D01*
%TO.C,U106*%
X180086000Y-92515000D02*
X177886000Y-92515000D01*
X180086000Y-92515000D02*
X182286000Y-92515000D01*
X180086000Y-97985000D02*
X177886000Y-97985000D01*
X180086000Y-97985000D02*
X182286000Y-97985000D01*
X184276000Y-97765000D02*
X183946000Y-97525000D01*
X184276000Y-97285000D01*
X184276000Y-97765000D01*
G36*
X184276000Y-97765000D02*
G01*
X183946000Y-97525000D01*
X184276000Y-97285000D01*
X184276000Y-97765000D01*
G37*
%TO.C,D253*%
X122100000Y-69120000D02*
X122100000Y-69770000D01*
X122750000Y-69120000D02*
X122100000Y-69120000D01*
%TO.C,C107*%
X180368000Y-133109767D02*
X180368000Y-132817233D01*
X181388000Y-133109767D02*
X181388000Y-132817233D01*
%TO.C,SW219*%
X156030000Y-122530000D02*
X156030000Y-136730000D01*
X156030000Y-136730000D02*
X170230000Y-136730000D01*
X170230000Y-122530000D02*
X156030000Y-122530000D01*
X170230000Y-136730000D02*
X170230000Y-122530000D01*
%TO.C,C105*%
X186511600Y-102254267D02*
X186511600Y-101961733D01*
X187531600Y-102254267D02*
X187531600Y-101961733D01*
%TO.C,R104*%
X177307500Y-133168224D02*
X177307500Y-132658776D01*
X178352500Y-133168224D02*
X178352500Y-132658776D01*
%TO.C,Q105*%
X176438000Y-106166000D02*
X177368000Y-106166000D01*
X176438000Y-106966000D02*
X176438000Y-106166000D01*
X176438000Y-106966000D02*
X176438000Y-107766000D01*
X179598000Y-106166000D02*
X178668000Y-106166000D01*
X179598000Y-106166000D02*
X179598000Y-107626000D01*
X176408000Y-108266000D02*
X176078000Y-108506000D01*
X176078000Y-108026000D01*
X176408000Y-108266000D01*
G36*
X176408000Y-108266000D02*
G01*
X176078000Y-108506000D01*
X176078000Y-108026000D01*
X176408000Y-108266000D01*
G37*
%TO.C,D219*%
X162270000Y-138030000D02*
X162270000Y-138830000D01*
X163630000Y-138030000D02*
X162270000Y-138030000D01*
X163630000Y-138830000D02*
X162270000Y-138830000D01*
%TD*%
M02*
