M48
; DRILL file {KiCad 9.0.3} date 2025-07-27T18:33:23+0200
; FORMAT={-:-/ absolute / metric / decimal}
; #@! TF.CreationDate,2025-07-27T18:33:23+02:00
; #@! TF.GenerationSoftware,Kicad,Pcbnew,9.0.3
; #@! TF.FileFunction,Plated,1,2,PTH
FMAT,2
METRIC
; #@! TA.AperFunction,Plated,PTH,ComponentDrill
T1C0.600
; #@! TA.AperFunction,Plated,PTH,ComponentDrill
T2C0.600
; #@! TA.AperFunction,Plated,PTH,ComponentDrill
T3C0.700
; #@! TA.AperFunction,Plated,PTH,ComponentDrill
T4C0.750
; #@! TA.AperFunction,Plated,PTH,ComponentDrill
T5C1.500
; #@! TA.AperFunction,Plated,PTH,ComponentDrill
T6C2.700
%
G90
G05
T3
X190.22Y-134.844
X196.0Y-134.844
T4
X196.626Y-117.062
X196.626Y-119.062
X196.626Y-121.062
X196.626Y-123.062
T5
X79.32Y-67.09
X79.32Y-87.09
X79.32Y-107.09
X85.67Y-64.55
X85.67Y-84.55
X85.67Y-104.55
X99.32Y-64.59
X99.32Y-84.59
X99.32Y-104.59
X99.32Y-124.59
X105.67Y-62.05
X105.67Y-82.05
X105.67Y-102.05
X105.67Y-122.05
X119.32Y-62.09
X119.32Y-82.09
X119.32Y-102.09
X119.32Y-122.09
X125.67Y-59.55
X125.67Y-79.55
X125.67Y-99.55
X125.67Y-119.55
X139.32Y-64.59
X139.32Y-84.59
X139.32Y-104.59
X139.32Y-124.59
X145.67Y-62.05
X145.67Y-82.05
X145.67Y-102.05
X145.67Y-122.05
X159.32Y-67.09
X159.32Y-87.09
X159.32Y-107.09
X159.32Y-127.09
X165.67Y-64.55
X165.67Y-84.55
X165.67Y-104.55
X165.67Y-124.55
T6
X191.097Y-95.885
X191.097Y-103.085
T1
G00X188.79Y-133.864
M15
G01X188.79Y-134.764
M16
G05
G00X188.79Y-138.224
M15
G01X188.79Y-138.824
M16
G05
G00X197.43Y-133.864
M15
G01X197.43Y-134.764
M16
G05
G00X197.43Y-138.224
M15
G01X197.43Y-138.824
M16
G05
T2
G00X197.647Y-92.735
M15
G01X196.547Y-92.735
M16
G05
G00X197.647Y-106.235
M15
G01X196.547Y-106.235
M16
G05
M30
